<svg xmlns="http://www.w3.org/2000/svg" xmlns:xlink="http://www.w3.org/1999/xlink" width="1000" zoomAndPan="magnify" viewBox="0 0 750 749.999995" height="1000" preserveAspectRatio="xMidYMid meet" version="1.0"><path fill="#1c1c1a" d="M 750.015625 374.976562 C 750.015625 401.902344 747.195312 428.160156 741.785156 453.457031 C 741.710938 453.707031 741.675781 453.976562 741.613281 454.214844 C 710.722656 597.839844 597.6875 710.882812 454.066406 741.667969 C 453.921875 741.699219 453.792969 741.730469 453.652344 741.765625 C 428.324219 747.175781 401.988281 750.035156 375 750.035156 C 167.863281 750.035156 -0.015625 582.117188 -0.015625 374.976562 C -0.015625 167.882812 167.863281 -0.0351562 375 -0.0351562 C 582.136719 -0.0351562 750.015625 167.882812 750.015625 374.976562 " fill-opacity="1" fill-rule="nonzero"/><path fill="#6e3939" d="M 741.613281 454.214844 C 710.722656 597.839844 597.6875 710.882812 454.066406 741.667969 C 453.921875 741.699219 453.792969 741.730469 453.652344 741.765625 L 209.996094 498.605469 L 303.210938 481.171875 L 294.039062 478.210938 L 211.601562 396.21875 L 297.386719 377.667969 L 206.601562 286.925781 L 544.425781 257.042969 L 741.613281 454.214844 " fill-opacity="1" fill-rule="nonzero"/><path fill="#f2f2f2" d="M 229.296875 298.785156 L 520.703125 298.785156 C 535.96875 298.785156 548.339844 286.414062 548.339844 271.148438 C 548.339844 255.894531 535.96875 243.511719 520.703125 243.511719 L 229.296875 243.511719 C 214.03125 243.511719 201.660156 255.894531 201.660156 271.148438 C 201.660156 286.414062 214.03125 298.785156 229.296875 298.785156 " fill-opacity="1" fill-rule="nonzero"/><path fill="#f2f2f2" d="M 520.703125 347.351562 L 229.296875 347.351562 C 214.03125 347.351562 201.660156 359.722656 201.660156 374.988281 C 201.660156 390.246094 214.03125 402.628906 229.296875 402.628906 L 520.703125 402.628906 C 535.96875 402.628906 548.339844 390.246094 548.339844 374.988281 C 548.339844 359.722656 535.96875 347.351562 520.703125 347.351562 " fill-opacity="1" fill-rule="nonzero"/><path fill="#f2f2f2" d="M 520.703125 451.191406 L 229.296875 451.191406 C 214.03125 451.191406 201.660156 463.5625 201.660156 478.828125 C 201.660156 494.085938 214.03125 506.457031 229.296875 506.457031 L 520.703125 506.457031 C 535.96875 506.457031 548.339844 494.085938 548.339844 478.828125 C 548.339844 463.5625 535.96875 451.191406 520.703125 451.191406 " fill-opacity="1" fill-rule="nonzero"/></svg>