<svg xmlns="http://www.w3.org/2000/svg" xmlns:xlink="http://www.w3.org/1999/xlink" width="1000" zoomAndPan="magnify" viewBox="0 0 750 749.999995" height="1000" preserveAspectRatio="xMidYMid meet" version="1.0"><defs><clipPath id="fdb6a84fc2"><path d="M 289 210.648438 L 433 210.648438 L 433 275 L 289 275 Z M 289 210.648438 " clip-rule="nonzero"/></clipPath><clipPath id="0039511001"><path d="M 214.617188 390 L 507.117188 390 L 507.117188 539 L 214.617188 539 Z M 214.617188 390 " clip-rule="nonzero"/></clipPath><clipPath id="713f718d5c"><path d="M 486 225 L 595 225 L 595 366 L 486 366 Z M 486 225 " clip-rule="nonzero"/></clipPath><clipPath id="7837130d43"><path d="M 489.210938 218.453125 L 596.875 226.925781 L 585.226562 374.96875 L 477.558594 366.496094 Z M 489.210938 218.453125 " clip-rule="nonzero"/></clipPath><clipPath id="bea1ceb1e3"><path d="M 597.144531 226.945312 L 489.476562 218.472656 L 477.828125 366.515625 L 585.496094 374.988281 Z M 597.144531 226.945312 " clip-rule="nonzero"/></clipPath><clipPath id="d39b59dee0"><path d="M 547 224 L 562 224 L 562 266 L 547 266 Z M 547 224 " clip-rule="nonzero"/></clipPath><clipPath id="520de4f86d"><path d="M 489.210938 218.453125 L 596.875 226.925781 L 585.226562 374.96875 L 477.558594 366.496094 Z M 489.210938 218.453125 " clip-rule="nonzero"/></clipPath><clipPath id="90aa5f1d34"><path d="M 597.144531 226.945312 L 489.476562 218.472656 L 477.828125 366.515625 L 585.496094 374.988281 Z M 597.144531 226.945312 " clip-rule="nonzero"/></clipPath><clipPath id="651b196c49"><path d="M 480 321 L 519 321 L 519 352 L 480 352 Z M 480 321 " clip-rule="nonzero"/></clipPath><clipPath id="2dbb5a8f08"><path d="M 489.210938 218.453125 L 596.875 226.925781 L 585.226562 374.96875 L 477.558594 366.496094 Z M 489.210938 218.453125 " clip-rule="nonzero"/></clipPath><clipPath id="742ce8461a"><path d="M 597.144531 226.945312 L 489.476562 218.472656 L 477.828125 366.515625 L 585.496094 374.988281 Z M 597.144531 226.945312 " clip-rule="nonzero"/></clipPath></defs><path fill="#ffffff" d="M 309.757812 314.777344 C 311.457031 319.742188 313.929688 324.457031 316.921875 328.832031 C 317.726562 330.011719 318.546875 332.097656 318.730469 333.507812 C 320.324219 345.882812 323.761719 357.640625 330.984375 368 C 342.105469 383.9375 353.910156 386.632812 370.1875 384.097656 C 379.175781 382.695312 385.71875 376.984375 391 369.859375 C 397.972656 360.453125 401.894531 349.785156 403.59375 338.273438 C 403.910156 336.09375 404.558594 334.328125 406.148438 332.652344 C 414 324.398438 418.894531 314.882812 418.402344 303.097656 C 418.296875 300.480469 418.003906 297.910156 417.566406 295.359375 C 415.527344 298.398438 413.113281 301.152344 410.351562 303.605469 C 405.351562 308.046875 399.175781 311.503906 392.003906 313.867188 C 381.855469 317.207031 371.433594 318.894531 361.035156 318.894531 C 350.785156 318.894531 340.40625 317.253906 330.179688 314.007812 C 323.375 311.851562 317.394531 308.59375 312.414062 304.34375 C 309.917969 302.210938 307.660156 299.824219 305.664062 297.199219 C 306.0625 303.214844 307.800781 309.042969 309.757812 314.777344 " fill-opacity="1" fill-rule="nonzero"/><g clip-path="url(#fdb6a84fc2)"><path fill="#ffffff" d="M 346.265625 247.738281 C 346.449219 246.21875 346.945312 244.8125 347.542969 243.417969 C 348.082031 242.160156 348.582031 240.875 349.054688 239.582031 C 349.285156 238.925781 349.382812 238.289062 349.335938 237.660156 C 349.335938 237.648438 349.335938 237.648438 349.335938 237.648438 C 349.226562 237.136719 349.085938 236.640625 348.921875 236.132812 C 348.835938 235.851562 348.730469 235.570312 348.621094 235.289062 C 348.074219 234.027344 347.410156 232.828125 346.707031 231.640625 C 346.574219 231.425781 346.582031 231.300781 346.746094 231.109375 C 347.527344 230.242188 349.003906 228.550781 349.582031 227.886719 C 349.625 227.84375 349.65625 227.8125 349.699219 227.789062 C 349.832031 227.703125 350.007812 227.695312 350.148438 227.789062 C 350.828125 228.210938 351.53125 228.523438 352.253906 228.796875 C 352.351562 228.839844 352.460938 228.875 352.570312 228.90625 C 353.171875 229.089844 353.777344 229.289062 354.410156 229.371094 C 355.046875 229.4375 355.6875 229.402344 356.308594 229.269531 C 356.316406 229.269531 356.324219 229.269531 356.332031 229.261719 C 356.789062 229.164062 357.226562 229.015625 357.660156 228.824219 C 358.710938 228.367188 359.722656 227.828125 360.695312 227.214844 C 360.761719 227.183594 360.808594 227.15625 360.867188 227.15625 C 360.917969 227.15625 360.976562 227.183594 361.042969 227.214844 C 362.011719 227.828125 363.023438 228.367188 364.078125 228.824219 C 364.507812 229.015625 364.949219 229.164062 365.402344 229.261719 C 365.414062 229.269531 365.421875 229.269531 365.429688 229.269531 C 366.050781 229.402344 366.6875 229.4375 367.335938 229.371094 C 367.957031 229.289062 368.5625 229.089844 369.167969 228.90625 C 369.277344 228.875 369.382812 228.839844 369.484375 228.796875 C 370.203125 228.523438 370.910156 228.210938 371.589844 227.789062 C 371.730469 227.703125 371.894531 227.703125 372.027344 227.789062 C 372.070312 227.8125 372.113281 227.84375 372.144531 227.886719 C 372.734375 228.550781 374.210938 230.242188 374.988281 231.109375 C 375.15625 231.300781 375.164062 231.425781 375.039062 231.640625 C 374.324219 232.828125 373.664062 234.035156 373.105469 235.296875 C 373 235.570312 372.898438 235.851562 372.816406 236.132812 C 372.652344 236.640625 372.507812 237.136719 372.402344 237.648438 C 372.402344 237.648438 372.402344 237.648438 372.402344 237.660156 C 372.351562 238.289062 372.445312 238.925781 372.683594 239.582031 C 373.15625 240.875 373.644531 242.160156 374.191406 243.417969 C 374.796875 244.8125 375.296875 246.21875 375.46875 247.738281 C 375.496094 247.925781 375.503906 248.117188 375.503906 248.300781 C 375.503906 249.882812 374.609375 251.035156 373.074219 251.757812 C 372.054688 252.226562 370.976562 252.460938 369.890625 252.699219 C 368.28125 253.039062 366.671875 253.347656 365.105469 253.84375 C 364.433594 254.058594 363.546875 254.539062 362.757812 255.011719 C 361.972656 255.484375 361.273438 255.957031 360.984375 256.15625 C 360.910156 256.207031 360.820312 256.207031 360.753906 256.15625 C 360.164062 255.757812 357.984375 254.277344 356.632812 253.84375 C 355.0625 253.347656 353.457031 253.039062 351.847656 252.699219 C 350.761719 252.460938 349.683594 252.226562 348.664062 251.757812 C 347.128906 251.035156 346.234375 249.882812 346.234375 248.300781 C 346.234375 248.117188 346.242188 247.925781 346.265625 247.738281 Z M 290.207031 264.417969 C 292.835938 266.542969 301.75 273.660156 302.074219 273.917969 C 303.53125 275.054688 304.933594 274.621094 306.261719 274 C 306.957031 273.667969 307.6875 273.414062 308.425781 273.179688 C 308.632812 273.113281 308.839844 273.046875 309.054688 272.972656 C 315.058594 270.933594 321.09375 269.128906 327.171875 267.652344 C 333.5625 266.21875 340.046875 265.132812 346.589844 264.296875 C 351.183594 263.714844 355.746094 263.425781 360.269531 263.390625 C 360.46875 263.382812 360.667969 263.382812 360.867188 263.382812 C 361.074219 263.382812 361.273438 263.382812 361.472656 263.390625 C 366 263.425781 370.554688 263.714844 375.15625 264.296875 C 381.695312 265.132812 388.171875 266.21875 394.574219 267.652344 C 400.652344 269.128906 406.6875 270.933594 412.683594 272.972656 C 412.988281 273.082031 413.28125 273.171875 413.570312 273.261719 C 414.191406 273.445312 414.796875 273.675781 415.386719 273.960938 C 416.738281 274.597656 418.171875 275.078125 419.664062 273.917969 C 419.996094 273.660156 428.910156 266.542969 431.527344 264.417969 C 432.300781 263.796875 432.683594 262.894531 432.65625 261.984375 C 432.671875 261.261719 432.433594 260.542969 431.933594 259.953125 C 430.574219 258.34375 428.484375 256.066406 426.3125 253.464844 C 426.296875 253.445312 426.28125 253.421875 426.265625 253.40625 C 422.625 248.789062 418.726562 243.0625 417.09375 237.789062 C 416.730469 236.613281 416.480469 235.460938 416.363281 234.359375 C 416.355469 234.328125 416.355469 234.300781 416.355469 234.277344 C 416.148438 232.476562 415.261719 231.648438 414.027344 231.21875 C 413.230469 230.9375 410.425781 230.613281 409.996094 230.5625 C 401.597656 229.644531 396.390625 229.328125 392.582031 228.875 C 387.867188 227.664062 383.40625 225.816406 379.167969 223.417969 C 374.265625 220.644531 369.664062 217.128906 365.3125 213.019531 C 365.128906 212.835938 364.941406 212.671875 364.757812 212.511719 C 364.75 212.511719 364.75 212.511719 364.75 212.511719 C 363.371094 211.359375 362.128906 210.886719 360.867188 210.9375 C 359.617188 210.886719 358.363281 211.359375 356.988281 212.511719 C 356.804688 212.671875 356.613281 212.835938 356.425781 213.019531 C 352.070312 217.128906 347.46875 220.644531 342.5625 223.429688 C 338.332031 225.824219 333.871094 227.671875 329.152344 228.875 C 324.300781 230.117188 319.171875 230.6875 313.722656 230.472656 C 313.226562 230.457031 310.886719 230.664062 310.449219 230.703125 C 309.453125 230.820312 308.507812 230.9375 307.710938 231.21875 C 306.476562 231.65625 305.597656 232.476562 305.390625 234.277344 C 305.382812 234.300781 305.382812 234.328125 305.382812 234.359375 C 305.265625 235.460938 305.015625 236.613281 304.652344 237.789062 C 303.011719 243.0625 299.121094 248.789062 295.480469 253.40625 C 295.464844 253.421875 295.449219 253.445312 295.421875 253.464844 C 293.316406 256.140625 291.292969 258.4375 289.851562 260.042969 C 289.394531 260.550781 289.144531 261.164062 289.089844 261.792969 C 289.089844 261.84375 289.078125 261.890625 289.078125 261.949219 C 289.046875 262.863281 289.429688 263.789062 290.207031 264.417969 " fill-opacity="1" fill-rule="nonzero"/></g><path fill="#ffffff" d="M 332.4375 306.921875 C 351.457031 312.953125 370.726562 313.027344 389.671875 306.796875 C 401.804688 302.800781 410.941406 295.25 415.351562 283.414062 C 415.550781 282.910156 415.625 282.378906 415.601562 281.859375 C 414.257812 281.59375 413.113281 281.121094 412.203125 280.6875 L 412.175781 280.679688 C 411.945312 280.566406 411.6875 280.464844 411.414062 280.382812 C 411.03125 280.265625 410.667969 280.148438 410.328125 280.035156 L 410.285156 280.019531 C 404.148438 277.9375 398.453125 276.253906 392.875 274.894531 C 387.003906 273.578125 380.902344 272.535156 374.21875 271.679688 C 370.03125 271.148438 365.71875 270.867188 361.414062 270.835938 L 361.332031 270.828125 C 361.214844 270.828125 361.101562 270.828125 360.984375 270.828125 L 360.769531 270.828125 C 360.644531 270.828125 360.527344 270.828125 360.402344 270.828125 L 360.320312 270.835938 C 356.019531 270.867188 351.714844 271.148438 347.527344 271.679688 C 340.84375 272.535156 334.742188 273.578125 328.863281 274.894531 C 323.28125 276.253906 317.585938 277.9375 311.457031 280.019531 L 311.449219 280.027344 C 311.21875 280.101562 310.9375 280.191406 310.644531 280.292969 C 310.125 280.449219 309.71875 280.597656 309.410156 280.746094 L 309.402344 280.746094 C 308.539062 281.152344 307.339844 281.640625 305.902344 281.898438 C 306.003906 282.710938 306.34375 283.648438 306.839844 284.734375 C 312.03125 296.023438 320.871094 303.25 332.4375 306.921875 " fill-opacity="1" fill-rule="nonzero"/><g clip-path="url(#0039511001)"><path fill="#ffffff" d="M 455.300781 499.148438 C 455.019531 507.976562 455.226562 516.820312 455.226562 526.125 L 400.410156 526.308594 C 400.410156 517.871094 400.503906 510.007812 400.417969 502.230469 C 400.394531 501.503906 400.378906 500.78125 400.34375 500.050781 C 400.3125 499.222656 400.320312 498.453125 400.371094 497.730469 C 400.417969 492.777344 402.574219 490.414062 407.242188 490.113281 C 408.0625 490.015625 408.960938 489.984375 409.945312 490.007812 C 411.996094 490.074219 414.035156 490.113281 416.082031 490.15625 C 426 490.246094 435.90625 490.273438 445.816406 490.03125 C 446.28125 490.023438 446.71875 490.03125 447.140625 490.039062 C 453.21875 490.125 455.492188 492.972656 455.300781 499.148438 Z M 321.390625 500.050781 C 321.359375 500.78125 321.34375 501.503906 321.316406 502.230469 C 321.242188 510.007812 321.324219 517.871094 321.324219 526.308594 L 266.503906 526.125 C 266.503906 516.820312 266.71875 507.976562 266.4375 499.148438 C 266.246094 492.972656 268.515625 490.125 274.59375 490.039062 C 275.015625 490.03125 275.457031 490.023438 275.921875 490.03125 C 285.828125 490.273438 295.746094 490.246094 305.65625 490.15625 C 307.703125 490.113281 309.742188 490.074219 311.789062 490.007812 C 312.777344 489.984375 313.671875 490.015625 314.492188 490.113281 C 319.160156 490.414062 321.316406 492.777344 321.367188 497.730469 C 321.417969 498.453125 321.425781 499.222656 321.390625 500.050781 Z M 506.957031 512.492188 C 506.949219 498.617188 507.023438 484.738281 506.90625 470.863281 C 506.816406 460.992188 504.328125 451.3125 497.5625 444.21875 C 492.710938 439.128906 492.164062 434.527344 493.78125 429.117188 C 493.789062 429.089844 493.808594 429.066406 493.808594 429.042969 C 494.039062 428.28125 494.3125 427.5 494.621094 426.703125 C 495.292969 424.957031 495.632812 423.414062 495.632812 422.039062 C 495.640625 421.757812 495.640625 421.476562 495.648438 421.183594 C 495.707031 418.605469 494.570312 417.199219 491.785156 416.003906 C 490.714844 415.441406 446.601562 403.664062 444.789062 403.390625 C 440.035156 402.460938 438.59375 403.492188 436.355469 408.769531 C 435.726562 409.9375 435.027344 411.3125 434.207031 412.9375 C 430.648438 411.9375 427.425781 411.03125 424.273438 410.144531 C 424.480469 408.058594 424.65625 406.324219 424.746094 404.859375 C 424.828125 403.40625 424.828125 402.230469 424.671875 401.261719 C 424.167969 397.960938 422.003906 396.96875 416.039062 395.410156 C 415.226562 395.175781 399.050781 390.84375 397.882812 390.828125 C 394.707031 390.421875 393.1875 391.265625 391.265625 394.167969 C 390.769531 394.8125 363.761719 441.640625 360.867188 446.628906 C 357.976562 441.640625 330.96875 394.8125 330.472656 394.167969 C 328.546875 391.265625 327.023438 390.421875 323.855469 390.828125 C 322.6875 390.84375 306.507812 395.175781 305.695312 395.410156 C 299.742188 396.96875 297.570312 397.960938 297.066406 401.261719 C 296.90625 402.230469 296.90625 403.40625 296.988281 404.859375 C 297.082031 406.324219 297.253906 408.058594 297.460938 410.144531 C 294.3125 411.03125 291.085938 411.9375 287.53125 412.9375 C 286.71875 411.3125 286.011719 409.9375 285.382812 408.769531 C 283.144531 403.492188 281.699219 402.460938 276.949219 403.390625 C 275.132812 403.664062 231.023438 415.441406 229.953125 416.003906 C 227.167969 417.199219 226.03125 418.605469 226.089844 421.183594 C 226.097656 421.476562 226.097656 421.757812 226.105469 422.039062 C 226.105469 423.414062 226.4375 424.957031 227.117188 426.703125 C 227.425781 427.5 227.699219 428.28125 227.929688 429.042969 C 227.929688 429.066406 227.945312 429.089844 227.953125 429.117188 C 229.570312 434.527344 229.023438 439.128906 224.171875 444.21875 C 217.40625 451.3125 214.921875 460.992188 214.835938 470.863281 C 214.722656 484.738281 214.777344 498.617188 214.777344 512.492188 C 214.769531 518.359375 214.761719 524.234375 214.714844 530.105469 L 214.714844 530.144531 C 214.664062 536.230469 217.042969 538.863281 223.253906 538.855469 C 269.121094 538.816406 315 538.796875 360.867188 538.796875 C 406.738281 538.796875 452.613281 538.816406 498.484375 538.855469 C 504.695312 538.863281 507.074219 536.230469 507.023438 530.144531 L 507.023438 530.105469 C 506.972656 524.234375 506.957031 518.359375 506.957031 512.492188 " fill-opacity="1" fill-rule="nonzero"/></g><g clip-path="url(#713f718d5c)"><g clip-path="url(#7837130d43)"><g clip-path="url(#bea1ceb1e3)"><path fill="#ffffff" d="M 565.566406 225.316406 C 565.566406 225.316406 596.855469 228.195312 594.210938 256.609375 C 591.566406 285.023438 583.890625 309.726562 573.429688 323.007812 C 562.96875 336.289062 536.085938 371.09375 509.117188 365.242188 C 509.117188 365.242188 495.917969 361.296875 486.269531 353.898438 L 521.265625 330.515625 C 521.265625 330.515625 530.542969 337.46875 537.292969 329.703125 C 544.042969 321.9375 566.179688 285.101562 566.179688 285.101562 C 566.179688 285.101562 572.445312 273.148438 561.066406 266.859375 Z M 565.566406 225.316406 " fill-opacity="1" fill-rule="nonzero"/></g></g></g><g clip-path="url(#d39b59dee0)"><g clip-path="url(#520de4f86d)"><g clip-path="url(#90aa5f1d34)"><path fill="#ffffff" d="M 561.902344 225.027344 C 561.902344 225.027344 559.527344 224.015625 554.859375 226.136719 C 550.191406 228.253906 550.027344 230.316406 550.027344 230.316406 L 547.378906 258.734375 C 547.378906 258.734375 548.472656 260.480469 549.96875 262.253906 C 551.464844 264.03125 556.558594 266.921875 557.503906 265.335938 C 558.445312 263.753906 561.902344 225.027344 561.902344 225.027344 Z M 561.902344 225.027344 " fill-opacity="1" fill-rule="nonzero"/></g></g></g><g clip-path="url(#651b196c49)"><g clip-path="url(#2dbb5a8f08)"><g clip-path="url(#742ce8461a)"><path fill="#ffffff" d="M 518.765625 327.261719 L 510.085938 321.753906 C 510.085938 321.753906 508.082031 321.183594 504.667969 322.988281 C 501.25 324.796875 483.09375 337.058594 483.09375 337.058594 C 483.09375 337.058594 480.050781 339.308594 480.636719 342.257812 C 481.222656 345.207031 482.769531 351.554688 482.769531 351.554688 Z M 518.765625 327.261719 " fill-opacity="1" fill-rule="nonzero"/></g></g></g></svg>