<svg xmlns="http://www.w3.org/2000/svg" xmlns:xlink="http://www.w3.org/1999/xlink" width="1000" zoomAndPan="magnify" viewBox="0 0 750 749.999995" height="1000" preserveAspectRatio="xMidYMid meet" version="1.0"><defs><clipPath id="9136eafb6a"><path d="M 0 17 L 750 17 L 750 735 L 0 735 Z M 0 17 " clip-rule="nonzero"/></clipPath></defs><g clip-path="url(#9136eafb6a)"><path fill="#894747" d="M 256.902344 350.136719 C 259.890625 352.46875 262.902344 355.050781 265.90625 357.390625 C 262.855469 355.148438 260.808594 356.390625 256.902344 350.136719 Z M 150.898438 227.355469 C 150.898438 227.347656 150.902344 227.339844 150.90625 227.339844 L 155.105469 234.328125 C 153.152344 231.089844 152.101562 229.34375 150.898438 227.355469 Z M 509.894531 250.277344 C 507.246094 253.792969 504.472656 257.492188 501.808594 261.03125 C 504.308594 257.445312 503.039062 255.421875 509.894531 250.277344 Z M 631.5 107.609375 L 625.273438 114.324219 C 628.164062 111.203125 629.722656 109.523438 631.492188 107.609375 Z M 627.105469 141.757812 C 626.039062 142.996094 625.027344 144.292969 624.058594 145.640625 C 624.695312 144.390625 625.632812 143.097656 627.105469 141.757812 Z M 656.089844 112.160156 C 653.566406 116.214844 650.511719 119.699219 647.207031 122.925781 C 650.324219 119.355469 653.292969 115.710938 656.089844 112.160156 Z M 618.066406 159.832031 C 617.277344 160.605469 616.621094 161.355469 615.945312 162.105469 C 616.457031 161.175781 616.957031 160.246094 617.460938 159.316406 C 617.566406 159.515625 617.734375 159.699219 618.066406 159.832031 Z M 619.09375 156.308594 C 619.117188 156.261719 619.148438 156.210938 619.167969 156.164062 C 620.683594 154.824219 621.449219 153.449219 621.960938 152.039062 C 622.257812 153.164062 620.535156 154.792969 619.09375 156.308594 Z M 194.683594 247.71875 C 195.179688 248.519531 195.695312 249.203125 196.207031 249.890625 C 195.488281 249.328125 194.769531 248.765625 194.050781 248.203125 C 194.257812 248.132812 194.46875 247.996094 194.683594 247.71875 Z M 191.753906 246.40625 C 191.710938 246.375 191.671875 246.34375 191.628906 246.308594 C 190.828125 244.800781 189.789062 243.953125 188.644531 243.316406 C 189.753906 243.195312 190.765625 244.945312 191.753906 246.40625 Z M 163.347656 206.566406 C 166.0625 209.625 168.144531 212.976562 169.945312 216.472656 C 167.769531 213.074219 165.519531 209.761719 163.347656 206.566406 Z M 183.433594 240.617188 C 182.460938 239.871094 181.539062 238.84375 180.734375 237.316406 C 181.558594 238.453125 182.464844 239.558594 183.433594 240.617188 Z M 722.96875 632.738281 C 706.941406 626.339844 691.273438 618.832031 675.75 610.425781 C 677.804688 606.179688 671.804688 605.59375 667.082031 605.707031 C 659.070312 601.964844 651.359375 598.125 643.46875 594 C 643.796875 590.21875 640.339844 587.402344 642.484375 585.757812 C 640.066406 584.242188 637.476562 584.0625 634.980469 583.679688 C 636.164062 578.144531 627.390625 578.65625 623.382812 576.152344 C 621.089844 574.394531 618.707031 572.8125 616.421875 571.050781 C 616.027344 570.203125 615.644531 569.363281 615.039062 568.382812 C 612.953125 566.332031 610.785156 564.398438 608.632812 562.453125 C 604.816406 561.15625 601.230469 559.90625 597.503906 558.390625 C 595.339844 549.128906 583.65625 552.164062 576.496094 546.683594 C 575.257812 544.785156 577.484375 543.984375 577.882812 542.542969 C 570.503906 537.113281 561.695312 536.496094 555.683594 529.996094 C 548.0625 528.171875 541.632812 521.707031 534.695312 515.535156 C 532.941406 516.382812 531.332031 517.160156 529.574219 518.015625 C 528.296875 517.035156 526.816406 515.894531 525.554688 514.921875 C 526.273438 512.378906 524.921875 510.675781 526.140625 510.058594 C 523.832031 508.253906 521.527344 506.445312 519.015625 504.480469 C 516.5625 501.195312 514.148438 495.472656 510.179688 495.171875 C 505.882812 496.449219 502.457031 488.648438 497.699219 490.394531 C 496.875 489.714844 496.257812 489.203125 495.644531 488.683594 C 494.675781 481.777344 483.238281 478.476562 483.230469 471.785156 C 482.089844 469.882812 476.292969 462.054688 475.507812 467.175781 C 466.984375 461.804688 462.710938 456.59375 454.738281 449.828125 C 452.105469 450.992188 448.796875 446.308594 446.429688 443.386719 C 440.382812 438.953125 432.316406 432.675781 427.296875 424.574219 C 430.09375 421.671875 433.664062 418.851562 436.289062 417.667969 C 433.867188 413.496094 443.023438 410.550781 446.78125 407.203125 C 449.039062 406.828125 451.457031 406.101562 453.710938 405.726562 C 458.4375 401.984375 451.527344 401.339844 457.539062 397.621094 C 459.390625 395.65625 461.25 393.675781 463.09375 391.710938 C 464.429688 389.097656 467.03125 387 474.800781 383.308594 C 476.292969 381.960938 478.035156 380.386719 479.527344 379.042969 C 483.960938 375.984375 488.25 372.785156 492.5625 369.585938 C 493.335938 368.40625 493.964844 367.589844 494.480469 366.644531 C 504.757812 358.007812 515.003906 349.386719 525.269531 340.746094 C 527.488281 338.683594 529.949219 336.40625 532.410156 334.125 C 535.378906 330.871094 539.746094 328.246094 541.183594 324.726562 C 543.546875 321.796875 546.148438 318.636719 548.394531 315.570312 C 551.160156 314.160156 553.609375 311.859375 555.808594 309.773438 C 557.675781 306.785156 559.558594 303.820312 561.308594 301.183594 C 565.835938 297.1875 570.121094 293.414062 574.648438 289.417969 C 580.710938 284.085938 586.753906 278.746094 592.679688 273.242188 C 592.582031 272.117188 592.363281 271.34375 592.273438 270.210938 C 597.503906 268.558594 604.257812 261.945312 604.460938 257.070312 C 606.277344 255.054688 607.964844 252.902344 609.660156 250.742188 C 614.917969 245.511719 620.191406 240.269531 625.6875 234.804688 C 632.570312 227.835938 639.226562 221.109375 646.125 214.132812 C 652.035156 209.085938 655.230469 203.558594 661.433594 194.820312 C 663.109375 192.644531 664.777344 190.484375 666.457031 188.304688 C 668.789062 185.847656 670.898438 183.636719 673.234375 181.171875 C 676.605469 176.84375 679.964844 172.507812 683.183594 168.007812 C 686.429688 164.535156 689.886719 160.777344 692.019531 156.140625 C 695.78125 151.246094 699.316406 146.589844 702.929688 141.527344 C 707.007812 136.929688 710.871094 132.585938 714.953125 127.988281 C 717.765625 124.53125 722.894531 119.964844 722.886719 117.5625 C 724.972656 114.328125 727.253906 110.820312 729.335938 107.59375 C 730.289062 105.644531 731.460938 103.449219 732.277344 101.386719 C 731.945312 98.234375 731.945312 94.945312 731.601562 91.808594 C 731.398438 90.691406 731.191406 89.558594 730.761719 88.695312 C 729.015625 86.136719 726.921875 83.722656 725.160156 81.171875 C 726.238281 79.851562 727.101562 78.804688 728.183594 77.496094 C 732.808594 73.453125 737.359375 69.757812 741.953125 65.59375 C 741.789062 64.089844 741.503906 62.460938 741.554688 60.699219 C 744.707031 58.921875 749.070312 54.96875 750 50.796875 C 748.199219 48.820312 746.113281 47.527344 741.007812 51.652344 C 741.441406 49.335938 741.945312 46.640625 742.371094 44.332031 C 739.363281 43.09375 738.496094 37.570312 732.441406 42.082031 C 730.84375 38.964844 729.585938 35.707031 728.160156 32.363281 C 732.320312 22.921875 724.621094 21.839844 716.828125 24.996094 C 718.980469 15.023438 711.824219 20.027344 706.753906 20.320312 C 705.414062 19.195312 704.207031 18.171875 702.859375 17.046875 L 699.980469 20.84375 C 698.78125 19.824219 697.445312 18.683594 696.109375 17.550781 C 693.691406 18.398438 689.464844 20.160156 686.128906 21.007812 C 685.730469 20.660156 685.335938 20.308594 684.800781 19.851562 C 682.066406 18.277344 676.085938 30.609375 671.0625 27.824219 C 671.667969 29.609375 672.316406 31.53125 672.921875 33.316406 C 665.445312 36.351562 662.070312 34.945312 657.53125 37.636719 C 656.746094 40.769531 656.070312 43.179688 657.039062 45.832031 C 655.394531 47.765625 658.082031 48.121094 660.105469 48.714844 C 659.609375 51.742188 659.039062 54.292969 658.167969 57.457031 C 654.097656 58.441406 653.089844 57.464844 649.890625 61.949219 C 652.851562 65.25 643.941406 72.726562 642.859375 78.929688 C 638.769531 83.527344 629.160156 89.429688 633.707031 94.050781 C 626.019531 99.644531 619.109375 108.359375 616.816406 114.90625 C 613.65625 117.742188 610.796875 118.507812 608.226562 121.476562 C 605.226562 125.40625 602.429688 129.097656 599.753906 132.914062 C 591.023438 141.726562 590.101562 147.960938 583.335938 154.621094 C 580.457031 158.28125 577.378906 162.179688 574.5 165.832031 C 571.972656 169.382812 569.316406 172.808594 566.648438 176.214844 C 562.816406 178.816406 559.558594 182.046875 556.644531 188.648438 C 553.832031 191.421875 550.785156 194.421875 547.746094 197.421875 C 544.695312 200.40625 541.867188 203.183594 538.816406 206.167969 C 534.707031 208.957031 531.417969 212.160156 528.523438 218.371094 C 526.859375 219.972656 525.441406 221.339844 523.785156 222.9375 C 520.621094 224.285156 513.976562 230.679688 511.996094 235.453125 C 506.863281 241.09375 501.929688 246.480469 496.882812 252.222656 C 492.195312 252.796875 484.363281 261.351562 480.777344 267.339844 C 478.273438 269.984375 475.761719 272.648438 473.257812 275.304688 C 458.445312 284.753906 451.320312 298.90625 438.179688 309.921875 C 434.382812 316.230469 423.457031 322.089844 422.105469 327.78125 C 411.503906 338.28125 396.644531 348.714844 389.933594 358.84375 C 387.105469 361.117188 384.179688 364.867188 381.226562 365.378906 C 379.199219 367.808594 377.089844 370.109375 374.972656 372.40625 C 373.9375 371.296875 372.777344 370.058594 371.765625 368.976562 C 369.355469 365.378906 366.851562 361.882812 364.34375 358.386719 C 363.351562 357.824219 362.675781 357.339844 361.871094 356.976562 C 355.035156 348.714844 348.300781 340.394531 341.804688 331.890625 C 340.21875 330.070312 338.46875 328.058594 336.71875 326.039062 C 334.160156 323.632812 332.378906 319.933594 329.40625 318.878906 C 327.082031 316.972656 324.605469 314.84375 322.160156 313.027344 C 321.296875 310.640625 319.585938 308.59375 318.039062 306.742188 C 315.640625 305.226562 313.246094 303.699219 311.148438 302.265625 C 308.304688 298.394531 305.617188 294.726562 302.773438 290.859375 L 291.546875 275.296875 C 290.511719 275.402344 289.78125 275.59375 288.742188 275.695312 C 288.265625 271.109375 283.746094 265.214844 279.417969 265.019531 C 277.976562 263.429688 276.425781 261.921875 274.847656 260.421875 C 271.332031 255.75 267.847656 251.054688 264.265625 246.128906 C 259.75 239.910156 255.449219 233.886719 251.101562 227.609375 C 248.265625 222.257812 244.257812 219.21875 238.421875 213.277344 C 237.023438 211.679688 235.640625 210.097656 234.238281 208.492188 C 232.832031 206.304688 231.566406 204.328125 230.160156 202.140625 C 227.464844 198.902344 224.835938 195.644531 222.066406 192.472656 C 220.183594 189.382812 218.21875 186.097656 215.027344 183.757812 C 212.261719 180.070312 209.640625 176.574219 206.859375 172.867188 C 204.6875 168.902344 202.699219 165.152344 200.738281 161.226562 C 199.121094 158.453125 197.898438 153.796875 195.960938 153.351562 C 194.390625 151.207031 192.761719 148.84375 191.3125 146.738281 C 190.296875 145.671875 189.199219 144.398438 188.070312 143.40625 C 185.429688 142.949219 182.945312 142.222656 180.316406 141.691406 C 179.347656 141.554688 178.371094 141.410156 177.464844 141.480469 C 174.492188 141.984375 171.40625 142.710938 168.402344 143.144531 C 168.054688 142.050781 167.777344 141.171875 167.429688 140.078125 C 167.257812 135.921875 167.652344 132.140625 168.324219 129.195312 C 167.238281 128.894531 165.976562 128.589844 164.875 128.078125 C 165.542969 127.394531 166.109375 126.449219 166.386719 125.421875 C 166.644531 124.433594 166.625 123.457031 165.957031 122.566406 C 163.492188 122.167969 160.796875 121.816406 158.921875 125.191406 C 157.910156 124.074219 156.90625 122.640625 156.191406 121.347656 C 154.574219 121.433594 152.945312 120.796875 151.304688 120.632812 C 149.6875 120.472656 147.894531 120.796875 146.488281 123.367188 C 143.441406 122.121094 140.851562 120.433594 138.179688 118.492188 C 138.339844 116.332031 138.207031 114.855469 137.691406 113.933594 C 137.179688 112.980469 136.023438 112.492188 134.6875 112.433594 C 131.9375 112.3125 127.621094 113.96875 124.574219 117.632812 C 124.128906 115.007812 123.730469 113.566406 123.03125 112.898438 C 122.324219 112.214844 121.359375 112.320312 120.242188 112.882812 C 117.941406 113.96875 115.453125 117.179688 113.253906 119.121094 C 111.527344 118.824219 109.972656 118.554688 108.25 118.246094 C 107.929688 120.410156 107.730469 122.59375 107.652344 124.785156 C 106.078125 124.613281 104.335938 124.410156 102.589844 124.214844 C 101.839844 125.753906 100.867188 128.011719 99.972656 130.453125 C 99.050781 132.839844 98.226562 135.953125 97.445312 138.03125 C 96.917969 138.046875 96.390625 138.054688 95.679688 138.070312 C 94.925781 138.316406 94.695312 139.851562 94.761719 141.929688 C 94.835938 143.917969 95.191406 146.535156 95.546875 148.90625 C 96.230469 153.785156 96.847656 158.21875 94.316406 159.578125 C 96.195312 160.46875 98.253906 161.117188 100.121094 161.859375 C 99.003906 170.925781 96.207031 173.265625 96.585938 179.167969 C 99.097656 181.710938 101.007812 183.621094 103.855469 184.027344 C 104.910156 186.511719 106.394531 184.179688 107.820312 182.609375 C 110.34375 184.546875 112.414062 186.179688 114.90625 188.320312 C 114.101562 192.382812 112.789062 192.984375 115.617188 197.632812 C 119.769531 196.253906 123.164062 206.976562 128.5 209.796875 C 131.183594 214.898438 133.40625 225.203125 139.179688 222.234375 C 141.738281 230.601562 147.738281 238.777344 153.105469 242.097656 C 154.816406 245.484375 154.679688 248.257812 156.730469 251.109375 C 159.53125 254.535156 162.203125 257.679688 165.046875 260.699219 C 170.980469 269.96875 176.5625 271.589844 181.152344 278.519531 C 183.90625 281.527344 186.839844 284.746094 189.589844 287.746094 C 192.339844 290.386719 194.945312 293.117188 197.570312 295.824219 C 199.199219 299.542969 201.570312 302.765625 207.148438 305.847656 C 209.207031 308.578125 211.429688 311.535156 213.652344 314.492188 C 215.898438 317.421875 217.984375 320.136719 220.234375 323.070312 C 222.132812 326.949219 224.582031 330.089844 229.914062 332.886719 C 231.148438 334.449219 232.207031 335.78125 233.4375 337.335938 C 234.203125 340.277344 239.203125 346.476562 243.394531 348.300781 C 247.933594 353.03125 252.316406 357.53125 257.050781 362.09375 C 257.003906 366.40625 264.085938 373.46875 269.300781 376.558594 C 271.460938 378.820312 273.78125 380.949219 275.957031 383.199219 C 283.339844 396.496094 295.996094 402.234375 305.363281 413.496094 C 309.5625 415.742188 313.335938 421.664062 317.160156 424.800781 C 315.214844 426.617188 313.257812 428.402344 311.324219 430.28125 C 311.03125 430.996094 310.992188 431.484375 310.597656 432.046875 C 308.476562 433.628906 306.238281 436.671875 304.027344 436.476562 C 287.121094 449.683594 263.945312 467.671875 249.800781 482.949219 C 236.742188 494.152344 222.332031 501.179688 209.113281 518.363281 C 207.828125 519.390625 206.542969 520.425781 205.511719 521.257812 C 201.917969 523.019531 198.566406 524.578125 195.230469 526.132812 C 192.652344 528.1875 190.335938 530.039062 187.753906 532.09375 C 185.414062 529.929688 182.832031 533.097656 180.273438 538.035156 C 174.011719 543.445312 167.476562 549.035156 161.089844 554.25 C 158.488281 556.277344 155.898438 558.300781 153.554688 560.121094 C 141.761719 569.085938 129.8125 577.808594 117.832031 586.433594 C 110.953125 592.066406 104.046875 597.675781 97.023438 603.097656 C 96.023438 602.746094 95.113281 602.550781 94.359375 602.015625 C 91.824219 604.109375 89.644531 606.152344 87.199219 608.378906 C 84.824219 610.109375 82.171875 612.046875 79.53125 613.972656 C 76.464844 614.03125 74.34375 615.554688 72.234375 617.085938 C 72.121094 619.328125 71.640625 621.609375 71.261719 624.035156 C 68.324219 626.121094 65.148438 628.386719 62.214844 630.480469 C 57.765625 633.179688 53.410156 636.03125 48.949219 638.679688 L 46.539062 640.335938 C 43.507812 642.203125 40.117188 644.09375 36.996094 645.773438 C 32.359375 649.304688 27.972656 652.640625 23.226562 655.929688 C 18.042969 659.078125 12.234375 662.902344 14.648438 665.320312 C 16.851562 666.015625 18.960938 666.539062 20.902344 667.386719 C 15.183594 672.21875 19.996094 676.425781 25.4375 675.503906 C 29.671875 672.421875 33.976562 669.421875 38.171875 666.242188 C 44.707031 662.558594 50.878906 660.726562 57.566406 655.28125 C 58.550781 653.109375 59.621094 651.089844 60.875 648.734375 C 65.734375 646.628906 70.003906 647.273438 74.675781 644.183594 C 80.785156 640.277344 87.144531 636.140625 93.125 632.015625 C 101.253906 630.007812 106.128906 622.933594 112.304688 617.925781 C 114.367188 617.429688 116.734375 616.859375 118.800781 616.367188 L 129.136719 608.601562 C 129.929688 608.011719 130.714844 607.425781 131.519531 606.820312 C 134.21875 604.328125 137.207031 601.640625 139.996094 599.285156 C 140.78125 600.449219 141.570312 601.605469 141.578125 607.546875 C 141.777344 607.839844 141.871094 607.980469 142.070312 608.265625 C 140.398438 611.730469 135.882812 612.742188 136.019531 615.921875 C 135.472656 620.507812 143.40625 615.617188 142.738281 623.578125 C 130.632812 629.414062 124.195312 639.007812 113.277344 645.488281 C 112.410156 647.21875 111.441406 648.785156 110.832031 650.308594 C 111.777344 651.785156 112.632812 653.117188 113.582031 654.585938 C 111.414062 655.53125 107.042969 657.398438 107.546875 660.054688 C 104.917969 661.53125 102.917969 662.746094 100.542969 664.019531 C 97.605469 663.765625 96.566406 661.484375 91.902344 662.871094 C 81.410156 667.515625 88.664062 669.675781 86.476562 675.058594 C 84.730469 672.878906 77.199219 679.199219 75.675781 682.558594 L 73.179688 684.277344 C 69.921875 685.386719 66.984375 686.390625 63.730469 687.511719 C 61.480469 689.011719 59.242188 690.511719 56.984375 692.011719 C 48.183594 700.476562 51.238281 687.300781 39.683594 701.296875 C 39.578125 703.214844 39.539062 705.308594 39.5 707.390625 L 35.097656 710.09375 C 31.601562 713.121094 28.324219 715.957031 24.792969 719.015625 C 17.113281 724.433594 5.246094 727.214844 0 735.054688 C 10.941406 731.550781 19.808594 727.6875 28.964844 723.496094 C 30.816406 722.40625 32.960938 721.15625 34.800781 720.082031 C 55.703125 709.222656 75.289062 697.636719 94.957031 685.582031 C 97.445312 689.617188 102.566406 683.671875 105.847656 678.734375 C 115.222656 672.058594 124.234375 665.507812 133.445312 658.695312 C 136.996094 660.433594 142.082031 657.75 142.355469 660.609375 C 145.425781 658.535156 147.289062 655.84375 149.230469 653.296875 C 154.121094 656.421875 159.070312 646.808594 163.988281 643.289062 L 173.324219 637.296875 C 174.425781 637.109375 175.519531 636.9375 176.882812 636.5625 C 180.210938 634.890625 183.457031 633.074219 186.683594 631.246094 C 190.191406 627.445312 193.421875 623.835938 197.011719 620.160156 C 207.960938 620.085938 210.824219 606.511719 220.0625 599.886719 C 222.679688 598.929688 222.464844 601.554688 223.796875 602.296875 C 233.230469 595.28125 237.941406 585.699219 247.585938 580.214844 C 252.925781 572.121094 262.605469 566.109375 272.121094 559.265625 C 271.898438 557.214844 271.691406 555.308594 271.472656 553.253906 C 273.03125 551.976562 274.851562 550.492188 276.402344 549.222656 C 278.886719 550.367188 281.265625 549.089844 281.46875 550.515625 C 284.316406 548.175781 287.171875 545.835938 290.277344 543.292969 C 294.777344 540.953125 301.972656 538.875 303.71875 534.480469 C 303.871094 529.589844 313.632812 526.492188 313.335938 521.039062 C 314.367188 520.179688 315.140625 519.539062 315.910156 518.894531 C 323.886719 518.414062 331.222656 505.875 338.617188 506.273438 C 341.089844 505.125 351.570312 499.019531 346.117188 497.886719 C 354.636719 488.625 361.644531 484.050781 371.363281 475.277344 C 371.257812 474.742188 371.429688 474.171875 371.710938 473.601562 C 386.40625 486.539062 399.53125 500.96875 416.339844 513.742188 C 417.007812 513.863281 417.464844 513.804688 417.996094 514.042969 C 419.570312 515.679688 422.496094 517.101562 422.464844 519.171875 C 435.621094 531.972656 454.304688 549.023438 469.933594 557.847656 C 481.695312 566.738281 490.167969 577.980469 507.839844 584.617188 C 508.984375 585.449219 510.132812 586.289062 511.046875 586.964844 C 513.246094 589.679688 515.277344 592.183594 517.304688 594.691406 C 519.636719 596.332031 521.734375 597.808594 524.070312 599.460938 C 522.621094 602.296875 525.988281 603.5625 530.886719 604.179688 C 537.015625 607.929688 543.390625 611.828125 549.496094 615.5625 C 551.910156 617.117188 554.316406 618.667969 556.484375 620.070312 C 567.277344 627.152344 578.144531 634.183594 589.253906 640.933594 C 596.257812 644.460938 603.261719 647.984375 610.257812 651.511719 C 610.320312 652.535156 610.484375 653.40625 610.304688 654.300781 C 612.980469 655.492188 615.464844 656.414062 618.238281 657.433594 C 620.582031 658.613281 623.195312 659.925781 625.796875 661.230469 C 627.050781 663.804688 629.167969 664.839844 631.273438 665.859375 C 633.164062 664.816406 635.234375 664.050781 637.355469 663.121094 C 640.28125 664.46875 643.445312 665.933594 646.363281 667.28125 C 650.464844 669.511719 654.671875 671.566406 658.859375 673.695312 L 661.296875 674.730469 C 664.214844 676.117188 667.339844 677.777344 670.222656 679.28125 C 675.320312 680.886719 680.152344 682.402344 685.253906 684.007812 C 690.480469 686.078125 696.773438 687.96875 697.109375 684.570312 C 696.332031 682.464844 695.511719 680.527344 695.046875 678.527344 C 701.804688 679.671875 701.96875 673.277344 698.40625 669.863281 C 693.945312 668.714844 689.558594 667.347656 685.140625 666.070312 C 679.175781 663.285156 674.957031 659.535156 667.84375 657.34375 C 665.757812 657.796875 663.742188 658.078125 661.363281 658.394531 C 657.636719 655.621094 656.347656 651.839844 652.066406 649.679688 C 646.589844 646.757812 640.867188 643.695312 635.394531 640.777344 C 630.859375 635.015625 623.519531 634.394531 617.382812 631.492188 C 616.3125 629.964844 615.097656 628.230469 614.03125 626.707031 L 604.484375 621.398438 C 603.757812 620.984375 603.039062 620.574219 602.300781 620.152344 C 599.4375 618.953125 596.355469 617.519531 593.601562 616.132812 C 594.351562 614.953125 595.125 613.785156 600.058594 611.183594 C 600.246094 610.890625 600.34375 610.742188 600.53125 610.449219 C 603.855469 610.367188 605.957031 613.777344 608.542969 612.21875 C 612.441406 610.613281 606.238281 606.074219 612.945312 603.046875 C 621.050781 610.65625 630.691406 611.492188 639.238281 617.242188 C 640.882812 617.085938 642.425781 617.085938 643.816406 616.808594 C 644.652344 615.277344 645.417969 613.898438 646.257812 612.359375 C 647.675781 613.65625 650.558594 616.230469 652.433594 614.429688 C 654.449219 615.765625 656.007812 616.792969 657.808594 617.976562 C 658.628906 620.492188 657.230469 622.582031 659.960938 625.570312 C 667.289062 631.441406 666.285156 624.390625 671.070312 623.09375 C 670.082031 625.746094 677.601562 628.027344 680.617188 627.203125 L 682.820312 628.109375 C 684.929688 629.910156 686.789062 631.628906 688.925781 633.390625 L 694.914062 635.695312 C 704.503906 636.808594 694.214844 643.179688 708.90625 642.359375 C 710.226562 641.136719 711.601562 639.75 712.949219 638.363281 L 716.714844 639.578125 C 720.210938 639.972656 723.519531 640.019531 727.042969 640.160156 C 733.777344 641.226562 741.613281 646.246094 747.285156 641.964844 C 740.746094 639.5625 734.289062 636.972656 727.65625 634.132812 C 726.164062 633.691406 724.445312 633.171875 722.96875 632.738281 " fill-opacity="1" fill-rule="nonzero"/></g></svg>