<svg xmlns="http://www.w3.org/2000/svg" xmlns:xlink="http://www.w3.org/1999/xlink" width="1000" zoomAndPan="magnify" viewBox="0 0 750 749.999995" height="1000" preserveAspectRatio="xMidYMid meet" version="1.0"><path fill="#999999" d="M 375 750.03125 C 581.515625 750.03125 749.96875 581.589844 749.96875 375.058594 C 749.96875 168.5625 581.515625 0.136719 375 0.136719 C 168.484375 0.136719 0.03125 168.578125 0.03125 375.058594 C 0.03125 581.589844 168.484375 750.03125 375 750.03125 Z M 375 750.03125 " fill-opacity="1" fill-rule="evenodd"/><path fill="#6f4923" d="M 227.480469 358.992188 L 410.792969 504.523438 L 297.308594 647.4375 L 114.011719 501.90625 Z M 227.480469 358.992188 " fill-opacity="1" fill-rule="evenodd"/><path fill="#6f4923" d="M 390.902344 341.324219 C 476.152344 408.980469 511.074219 507.027344 469.046875 560.429688 L 159.75 314.917969 C 202.269531 261.875 305.664062 273.617188 390.902344 341.3125 Z M 390.902344 341.324219 " fill-opacity="1" fill-rule="evenodd"/><path fill="#070906" d="M 335.472656 370.769531 L 401.332031 423.046875 L 349.074219 437.699219 L 270.78125 574.46875 L 233.171875 568.578125 L 217.59375 532.257812 L 333.039062 424.976562 Z M 335.472656 370.769531 " fill-opacity="1" fill-rule="evenodd"/><path fill="#452e17" d="M 371.597656 382.617188 L 363.621094 400.03125 L 315.25 402.320312 L 305.996094 337.425781 L 327.917969 333.609375 Z M 371.597656 382.617188 " fill-opacity="1" fill-rule="evenodd"/><path fill="#452e17" d="M 371.597656 382.617188 L 363.621094 400.03125 L 393.355469 438.242188 L 448.617188 403.011719 L 437.273438 383.855469 Z M 371.597656 382.617188 " fill-opacity="1" fill-rule="evenodd"/><path fill="#6f4923" d="M 406.0625 510.445312 L 473.445312 554.253906 L 318.035156 745.003906 L 307.960938 648.953125 Z M 406.0625 510.445312 " fill-opacity="1" fill-rule="evenodd"/><path fill="#fff5e4" d="M 323.925781 339.644531 L 435.265625 390.835938 L 363.628906 400.03125 Z M 323.925781 339.644531 " fill-opacity="1" fill-rule="evenodd"/><path fill="#ffffff" d="M 164.796875 309.21875 L 222.746094 364.914062 L 95.429688 487.140625 L 51.023438 451.914062 Z M 164.796875 309.21875 " fill-opacity="1" fill-rule="evenodd"/><path fill="#fff5e4" d="M 323.125 226.285156 C 341.683594 229.046875 354.519531 246.351562 351.773438 264.964844 C 349.011719 283.542969 331.6875 296.378906 313.109375 293.578125 C 294.53125 290.816406 281.699219 273.511719 284.445312 254.933594 C 287.226562 236.355469 304.511719 223.558594 323.125 226.285156 Z M 576.980469 263.984375 C 595.554688 266.75 608.390625 284.054688 605.609375 302.632812 C 602.882812 321.210938 585.558594 334.042969 566.980469 331.277344 C 548.402344 328.550781 535.585938 311.210938 538.351562 292.667969 C 541.097656 274.058594 558.402344 261.222656 576.980469 263.984375 Z M 576.980469 263.984375 " fill-opacity="1" fill-rule="evenodd"/><path fill="#fff5e4" d="M 385.324219 91.851562 L 470.921875 104.539062 L 533.160156 150.128906 C 546.558594 159.945312 562.792969 161 571.953125 174.851562 C 581.097656 188.703125 583.640625 204.152344 579.40625 220.222656 L 557.738281 358.589844 C 553.285156 387.164062 523.507812 404.285156 494.933594 400.035156 L 428.511719 390.179688 L 362.074219 380.328125 C 333.5 376.074219 312.902344 351.277344 314.011719 322.414062 L 317.667969 225.855469 L 320.703125 145.476562 C 321.335938 128.898438 328.261719 114.828125 341.042969 104.210938 C 353.820312 93.628906 368.910156 89.414062 385.324219 91.851562 Z M 385.324219 91.851562 " fill-opacity="1" fill-rule="evenodd"/><path fill="#070906" d="M 540.613281 275.152344 C 541.832031 279.984375 542.140625 285.21875 541.355469 290.492188 C 538.230469 311.542969 519.070312 326.15625 498.585938 323.140625 C 478.097656 320.085938 464.03125 300.5625 467.15625 279.476562 C 467.9375 274.167969 469.738281 269.296875 472.320312 265.007812 C 496.0625 261.878906 518.78125 265.441406 540.613281 275.152344 Z M 540.613281 275.152344 " fill-opacity="1" fill-rule="evenodd"/><path fill="#070906" d="M 436.730469 260.503906 C 437.964844 265.375 438.273438 270.574219 437.472656 275.847656 C 434.347656 296.933594 415.207031 311.546875 394.71875 308.492188 C 374.234375 305.441406 360.148438 285.914062 363.273438 264.832031 C 364.054688 259.558594 365.871094 254.652344 368.433594 250.359375 C 392.175781 247.234375 414.914062 250.796875 436.730469 260.503906 Z M 436.730469 260.503906 " fill-opacity="1" fill-rule="evenodd"/><path fill="#070906" d="M 435.367188 344.015625 C 435.367188 344.015625 453.765625 338.597656 465.363281 347.070312 C 476.976562 355.613281 489.8125 364.957031 495.753906 365.828125 C 501.734375 366.738281 468.015625 365.792969 454.492188 361.101562 C 440.984375 356.375 435.367188 344.015625 435.367188 344.015625 C 435.367188 344.015625 419.316406 333.507812 405.738281 338.234375 C 392.160156 343.035156 377.164062 348.234375 371.199219 347.359375 C 365.238281 346.449219 397.777344 355.359375 412.117188 354.777344 C 426.410156 354.195312 435.367188 344.015625 435.367188 344.015625 Z M 435.367188 344.015625 " fill-opacity="1" fill-rule="evenodd"/><path fill="#6f4923" d="M 294.632812 171.691406 C 289.324219 186.558594 385.832031 260.796875 497.1875 279.882812 C 608.527344 298.96875 655.183594 291.515625 644.589844 254.398438 C 633.976562 217.316406 566.097656 112.320312 471.722656 67.789062 C 377.34375 23.257812 335.988281 52.921875 320.089844 75.207031 C 304.183594 97.453125 294.640625 171.691406 294.640625 171.691406 Z M 294.632812 171.691406 " fill-opacity="1" fill-rule="evenodd"/><path fill="#191919" d="M 326.222656 3.25 L 326.222656 746.902344 C 142.214844 722.980469 0.03125 565.601562 0.03125 375.09375 C 0.03125 184.554688 142.214844 27.179688 326.222656 3.25 Z M 326.222656 3.25 " fill-opacity="1" fill-rule="evenodd"/><path fill="#fff5e4" d="M 289.3125 373.746094 L 339.558594 373.746094 C 345.210938 373.746094 349.828125 378.363281 349.828125 384.035156 L 349.828125 386.324219 C 349.828125 391.960938 345.210938 396.613281 339.558594 396.613281 L 289.3125 396.613281 C 283.660156 396.613281 279.042969 391.960938 279.042969 386.324219 L 279.042969 384.035156 C 279.042969 378.363281 283.660156 373.746094 289.3125 373.746094 Z M 289.3125 373.746094 " fill-opacity="1" fill-rule="evenodd"/><path fill="#fff5e4" d="M 289.3125 400.4375 L 339.558594 400.4375 C 345.210938 400.4375 349.828125 405.054688 349.828125 410.726562 L 349.828125 413.019531 C 349.828125 418.65625 345.210938 423.308594 339.558594 423.308594 L 289.3125 423.308594 C 283.660156 423.308594 279.042969 418.65625 279.042969 413.019531 L 279.042969 410.726562 C 279.042969 405.054688 283.660156 400.4375 289.3125 400.4375 Z M 289.3125 400.4375 " fill-opacity="1" fill-rule="evenodd"/><path fill="#fff5e4" d="M 289.3125 427.117188 L 339.558594 427.117188 C 345.210938 427.117188 349.828125 431.769531 349.828125 437.40625 L 349.828125 439.695312 C 349.828125 445.332031 345.210938 449.988281 339.558594 449.988281 L 289.3125 449.988281 C 283.660156 449.988281 279.042969 445.332031 279.042969 439.695312 L 279.042969 437.40625 C 279.042969 431.769531 283.660156 427.117188 289.3125 427.117188 Z M 289.3125 427.117188 " fill-opacity="1" fill-rule="evenodd"/><path fill="#fff5e4" d="M 289.3125 602.101562 L 339.558594 602.101562 C 345.210938 602.101562 349.828125 606.71875 349.828125 612.351562 L 349.828125 614.644531 C 349.828125 620.316406 345.210938 624.933594 339.558594 624.933594 L 289.3125 624.933594 C 283.660156 624.933594 279.042969 620.316406 279.042969 614.644531 L 279.042969 612.351562 C 279.042969 606.71875 283.660156 602.101562 289.3125 602.101562 Z M 289.3125 602.101562 " fill-opacity="1" fill-rule="evenodd"/><path fill="#fff5e4" d="M 289.3125 628.777344 L 339.558594 628.777344 C 345.210938 628.777344 349.828125 633.394531 349.828125 639.03125 L 349.828125 641.324219 C 349.828125 646.992188 345.210938 651.609375 339.558594 651.609375 L 289.3125 651.609375 C 283.660156 651.609375 279.042969 646.992188 279.042969 641.324219 L 279.042969 639.03125 C 279.042969 633.394531 283.660156 628.777344 289.3125 628.777344 Z M 289.3125 628.777344 " fill-opacity="1" fill-rule="evenodd"/><path fill="#fff5e4" d="M 289.3125 655.472656 L 339.558594 655.472656 C 345.210938 655.472656 349.828125 660.089844 349.828125 665.761719 L 349.828125 668.015625 C 349.828125 673.683594 345.210938 678.300781 339.558594 678.300781 L 289.3125 678.300781 C 283.660156 678.300781 279.042969 673.683594 279.042969 668.015625 L 279.042969 665.761719 C 279.042969 660.089844 283.660156 655.472656 289.3125 655.472656 Z M 289.3125 655.472656 " fill-opacity="1" fill-rule="evenodd"/></svg>