<svg xmlns="http://www.w3.org/2000/svg" xmlns:xlink="http://www.w3.org/1999/xlink" width="1000" zoomAndPan="magnify" viewBox="0 0 750 749.999995" height="1000" preserveAspectRatio="xMidYMid meet" version="1.0"><defs><clipPath id="f99dc857f8"><path d="M 621.660156 746.757812 L 622.214844 746.757812 L 622.214844 750 L 621.660156 750 Z M 621.660156 746.757812 " clip-rule="nonzero"/></clipPath><clipPath id="b042c7e728"><path d="M 622.21875 750.011719 C 622.085938 748.910156 621.949219 747.839844 621.820312 746.757812 C 621.777344 747.828125 621.703125 748.933594 621.660156 750.011719 Z M 622.21875 750.011719 " clip-rule="nonzero"/></clipPath><clipPath id="e639849184"><path d="M 622.214844 750.011719 C 622.082031 748.910156 621.953125 747.839844 621.820312 746.757812 C 621.777344 747.828125 621.703125 748.933594 621.65625 750.011719 L 622.214844 750.011719 " clip-rule="nonzero"/></clipPath><clipPath id="dce2d69760"><path d="M 127.792969 531.265625 L 242.371094 531.265625 L 242.371094 749.191406 L 127.792969 749.191406 Z M 127.792969 531.265625 " clip-rule="nonzero"/></clipPath><clipPath id="355be0d408"><path d="M 231.789062 531.265625 C 231.546875 531.453125 231.300781 531.644531 231.058594 531.835938 C 230 532.675781 228.949219 533.535156 227.898438 534.398438 C 227.574219 534.664062 227.25 534.941406 226.925781 535.214844 C 225.964844 536.015625 225.023438 536.855469 224.070312 537.679688 C 221.476562 539.933594 218.902344 542.242188 216.378906 544.667969 L 216.171875 544.863281 C 215.035156 545.960938 213.90625 547.074219 212.785156 548.203125 L 212.238281 548.761719 C 211.382812 549.628906 210.523438 550.476562 209.675781 551.371094 C 208.453125 552.65625 207.242188 553.972656 206.042969 555.320312 C 204.839844 556.664062 203.648438 558.03125 202.460938 559.414062 C 202.226562 559.6875 201.996094 559.953125 201.761719 560.226562 C 200.800781 561.363281 199.847656 562.515625 198.898438 563.679688 C 198.640625 563.996094 198.386719 564.316406 198.132812 564.636719 L 197.941406 564.871094 C 195.964844 567.34375 194.019531 569.921875 192.09375 572.550781 C 191.222656 573.738281 190.347656 574.910156 189.488281 576.136719 C 189.0625 576.742188 188.632812 577.34375 188.210938 577.957031 C 187.453125 579.054688 186.703125 580.171875 185.957031 581.296875 C 185.449219 582.054688 184.949219 582.828125 184.445312 583.601562 C 183.742188 584.6875 183.035156 585.777344 182.339844 586.886719 C 181.65625 587.976562 180.984375 589.097656 180.308594 590.210938 C 179.371094 591.757812 178.441406 593.332031 177.519531 594.925781 C 176.867188 596.0625 176.210938 597.207031 175.5625 598.367188 C 175.015625 599.347656 174.472656 600.34375 173.929688 601.34375 C 173.253906 602.589844 172.585938 603.851562 171.917969 605.132812 C 171.4375 606.050781 170.953125 606.964844 170.480469 607.898438 C 169.394531 610.03125 168.320312 612.1875 167.261719 614.402344 C 167 614.9375 166.753906 615.496094 166.496094 616.039062 C 165.621094 617.890625 164.753906 619.761719 163.902344 621.667969 C 163.527344 622.496094 163.160156 623.339844 162.789062 624.179688 C 162.011719 625.945312 161.246094 627.738281 160.484375 629.554688 C 160.164062 630.320312 159.839844 631.078125 159.519531 631.851562 C 158.457031 634.4375 157.40625 637.058594 156.375 639.742188 L 156.289062 639.964844 C 155.285156 642.585938 154.296875 645.265625 153.320312 647.976562 C 153.042969 648.75 152.769531 649.535156 152.492188 650.316406 C 151.734375 652.460938 150.984375 654.636719 150.242188 656.847656 C 149.976562 657.644531 149.707031 658.4375 149.441406 659.238281 C 148.480469 662.164062 147.53125 665.121094 146.597656 668.160156 L 146.582031 668.199219 C 139.335938 691.730469 133.058594 718.535156 127.792969 749.191406 L 242.371094 749.191406 L 242.371094 603.90625 C 239.886719 577.769531 235.890625 551.394531 231.789062 531.265625 Z M 231.789062 531.265625 " clip-rule="nonzero"/></clipPath><clipPath id="4de40dbcd6"><path d="M 231.789062 531.265625 C 231.546875 531.453125 231.300781 531.644531 231.058594 531.835938 C 230 532.675781 228.949219 533.535156 227.898438 534.398438 C 227.574219 534.664062 227.25 534.941406 226.925781 535.214844 C 225.964844 536.015625 225.023438 536.855469 224.070312 537.679688 C 221.476562 539.933594 218.902344 542.242188 216.378906 544.667969 L 216.171875 544.863281 C 215.035156 545.960938 213.90625 547.074219 212.785156 548.203125 L 212.238281 548.761719 C 211.382812 549.628906 210.523438 550.476562 209.675781 551.371094 C 208.453125 552.65625 207.242188 553.972656 206.042969 555.320312 C 204.839844 556.664062 203.648438 558.03125 202.460938 559.414062 C 202.226562 559.6875 201.996094 559.953125 201.761719 560.226562 C 200.800781 561.363281 199.847656 562.515625 198.898438 563.679688 C 198.640625 563.996094 198.386719 564.316406 198.132812 564.636719 L 197.941406 564.871094 C 195.964844 567.34375 194.019531 569.921875 192.09375 572.550781 C 191.222656 573.738281 190.347656 574.910156 189.488281 576.136719 C 189.0625 576.742188 188.632812 577.34375 188.210938 577.957031 C 187.453125 579.054688 186.703125 580.171875 185.957031 581.296875 C 185.449219 582.054688 184.949219 582.828125 184.445312 583.601562 C 183.742188 584.6875 183.035156 585.777344 182.339844 586.886719 C 181.65625 587.976562 180.984375 589.097656 180.308594 590.210938 C 179.371094 591.757812 178.441406 593.332031 177.519531 594.925781 C 176.867188 596.0625 176.210938 597.207031 175.5625 598.367188 C 175.015625 599.347656 174.472656 600.34375 173.929688 601.34375 C 173.253906 602.589844 172.585938 603.851562 171.917969 605.132812 C 171.4375 606.050781 170.953125 606.964844 170.480469 607.898438 C 169.394531 610.03125 168.320312 612.1875 167.261719 614.402344 C 167 614.9375 166.753906 615.496094 166.496094 616.039062 C 165.621094 617.890625 164.753906 619.761719 163.902344 621.667969 C 163.527344 622.496094 163.160156 623.339844 162.789062 624.179688 C 162.011719 625.945312 161.246094 627.738281 160.484375 629.554688 C 160.164062 630.320312 159.839844 631.078125 159.519531 631.851562 C 158.457031 634.4375 157.40625 637.058594 156.375 639.742188 L 156.289062 639.964844 C 155.285156 642.585938 154.296875 645.265625 153.320312 647.976562 C 153.042969 648.75 152.769531 649.535156 152.492188 650.316406 C 151.734375 652.460938 150.984375 654.636719 150.242188 656.847656 C 149.976562 657.644531 149.707031 658.4375 149.441406 659.238281 C 148.480469 662.164062 147.53125 665.121094 146.597656 668.160156 L 146.582031 668.199219 C 139.335938 691.730469 133.058594 718.535156 127.792969 749.191406 L 242.371094 749.191406 L 242.371094 603.90625 C 239.886719 577.769531 235.890625 551.394531 231.789062 531.265625 " clip-rule="nonzero"/></clipPath><linearGradient x1="-0.000000516306" gradientTransform="matrix(494.221707, 0, 0, -494.221707, 127.794718, 640.228955)" y1="0" x2="0.23183" gradientUnits="userSpaceOnUse" y2="0" id="73f9cc6792"><stop stop-opacity="1" stop-color="rgb(100%, 71.398926%, 0%)" offset="0"/><stop stop-opacity="1" stop-color="rgb(100%, 71.398926%, 0%)" offset="0.03125"/><stop stop-opacity="1" stop-color="rgb(100%, 71.398926%, 0.196838%)" offset="0.0625"/><stop stop-opacity="1" stop-color="rgb(100%, 71.398926%, 0.395203%)" offset="0.09375"/><stop stop-opacity="1" stop-color="rgb(100%, 71.498108%, 0.497437%)" offset="0.109375"/><stop stop-opacity="1" stop-color="rgb(100%, 71.697998%, 0.697327%)" offset="0.125"/><stop stop-opacity="1" stop-color="rgb(100%, 71.798706%, 0.898743%)" offset="0.140625"/><stop stop-opacity="1" stop-color="rgb(100%, 71.798706%, 1.098633%)" offset="0.15625"/><stop stop-opacity="1" stop-color="rgb(100%, 71.798706%, 1.199341%)" offset="0.1875"/><stop stop-opacity="1" stop-color="rgb(100%, 71.798706%, 1.295471%)" offset="0.203125"/><stop stop-opacity="1" stop-color="rgb(100%, 71.798706%, 1.493835%)" offset="0.21875"/><stop stop-opacity="1" stop-color="rgb(100%, 71.798706%, 1.596069%)" offset="0.25"/><stop stop-opacity="1" stop-color="rgb(100%, 71.798706%, 1.698303%)" offset="0.265625"/><stop stop-opacity="1" stop-color="rgb(100%, 71.798706%, 1.899719%)" offset="0.28125"/><stop stop-opacity="1" stop-color="rgb(100%, 71.995544%, 2.194214%)" offset="0.3125"/><stop stop-opacity="1" stop-color="rgb(100%, 72.193909%, 2.542114%)" offset="0.375"/><stop stop-opacity="1" stop-color="rgb(100%, 72.198486%, 2.697754%)" offset="0.40625"/><stop stop-opacity="1" stop-color="rgb(100%, 72.198486%, 2.893066%)" offset="0.4375"/><stop stop-opacity="1" stop-color="rgb(100%, 72.198486%, 3.189087%)" offset="0.453125"/><stop stop-opacity="1" stop-color="rgb(100%, 72.198486%, 3.390503%)" offset="0.46875"/><stop stop-opacity="1" stop-color="rgb(100%, 72.346497%, 3.494263%)" offset="0.5"/><stop stop-opacity="1" stop-color="rgb(100%, 72.497559%, 3.596497%)" offset="0.515625"/><stop stop-opacity="1" stop-color="rgb(100%, 72.499084%, 3.796387%)" offset="0.53125"/><stop stop-opacity="1" stop-color="rgb(100%, 72.499084%, 3.897095%)" offset="0.5625"/><stop stop-opacity="1" stop-color="rgb(100%, 72.499084%, 3.993225%)" offset="0.578125"/><stop stop-opacity="1" stop-color="rgb(100%, 72.499084%, 4.190063%)" offset="0.59375"/><stop stop-opacity="1" stop-color="rgb(100%, 72.499084%, 4.391479%)" offset="0.609375"/><stop stop-opacity="1" stop-color="rgb(100%, 72.499084%, 4.592896%)" offset="0.625"/><stop stop-opacity="1" stop-color="rgb(100%, 72.499084%, 4.696655%)" offset="0.65625"/><stop stop-opacity="1" stop-color="rgb(100%, 72.692871%, 4.893494%)" offset="0.6875"/><stop stop-opacity="1" stop-color="rgb(100%, 72.892761%, 5.093384%)" offset="0.71875"/><stop stop-opacity="1" stop-color="rgb(100%, 72.898865%, 5.194092%)" offset="0.734375"/><stop stop-opacity="1" stop-color="rgb(100%, 72.898865%, 5.39093%)" offset="0.75"/><stop stop-opacity="1" stop-color="rgb(100%, 72.898865%, 5.592346%)" offset="0.765625"/><stop stop-opacity="1" stop-color="rgb(100%, 72.898865%, 5.793762%)" offset="0.78125"/><stop stop-opacity="1" stop-color="rgb(100%, 72.898865%, 5.895996%)" offset="0.8125"/><stop stop-opacity="1" stop-color="rgb(100%, 72.898865%, 6.092834%)" offset="0.84375"/><stop stop-opacity="1" stop-color="rgb(100%, 72.993469%, 6.292725%)" offset="0.859375"/><stop stop-opacity="1" stop-color="rgb(100%, 73.190308%, 6.298828%)" offset="0.875"/><stop stop-opacity="1" stop-color="rgb(100%, 73.294067%, 6.394958%)" offset="0.890625"/><stop stop-opacity="1" stop-color="rgb(100%, 73.298645%, 6.593323%)" offset="0.90625"/><stop stop-opacity="1" stop-color="rgb(100%, 73.298645%, 6.889343%)" offset="0.9375"/><stop stop-opacity="1" stop-color="rgb(100%, 73.298645%, 7.092285%)" offset="0.96875"/><stop stop-opacity="1" stop-color="rgb(100%, 73.298645%, 7.295227%)" offset="1"/></linearGradient><clipPath id="04a93588ee"><path d="M 505.945312 530.324219 L 622.015625 530.324219 L 622.015625 749.191406 L 505.945312 749.191406 Z M 505.945312 530.324219 " clip-rule="nonzero"/></clipPath><clipPath id="a932bffaff"><path d="M 622.015625 745.941406 C 618.183594 714.570312 613.863281 689.140625 609.011719 668.199219 C 597.628906 619.242188 583.574219 594.78125 567.175781 575.460938 C 566.207031 574.332031 565.234375 573.195312 564.222656 572.0625 C 562.519531 570.199219 560.859375 568.378906 559.15625 566.597656 L 559.15625 566.554688 C 558.792969 566.183594 558.429688 565.808594 558.066406 565.4375 C 556.6875 564.027344 555.3125 562.617188 553.9375 561.210938 C 552.273438 559.507812 550.53125 557.847656 548.832031 556.1875 C 546.964844 554.363281 545.066406 552.585938 543.121094 550.84375 C 542.269531 550.074219 541.421875 549.265625 540.53125 548.496094 C 540.042969 548.050781 539.558594 547.644531 539.070312 547.199219 L 538.855469 547.007812 L 538.746094 546.917969 L 538.324219 546.554688 C 534.808594 543.433594 531.171875 540.429688 527.441406 537.519531 C 526.902344 537.09375 526.375 536.648438 525.832031 536.226562 C 525.582031 536.03125 525.324219 535.847656 525.074219 535.652344 C 523.390625 534.351562 521.726562 533.03125 520 531.808594 C 519.34375 531.300781 518.671875 530.8125 518 530.324219 C 513.335938 556.597656 508.78125 593.902344 505.945312 627.378906 L 505.945312 749.191406 L 621.855469 749.191406 C 621.902344 748.117188 621.976562 747.011719 622.015625 745.941406 Z M 622.015625 745.941406 " clip-rule="nonzero"/></clipPath><clipPath id="bdbfde7c93"><path d="M 622.015625 745.941406 C 618.183594 714.570312 613.859375 689.140625 609.007812 668.199219 C 597.625 619.242188 583.574219 594.78125 567.175781 575.464844 C 566.207031 574.332031 565.234375 573.199219 564.222656 572.0625 C 562.515625 570.203125 560.855469 568.378906 559.15625 566.597656 L 559.15625 566.554688 C 558.789062 566.183594 558.425781 565.808594 558.0625 565.4375 C 556.6875 564.027344 555.3125 562.617188 553.933594 561.210938 C 552.269531 559.511719 550.527344 557.851562 548.828125 556.1875 C 546.964844 554.363281 545.0625 552.585938 543.121094 550.847656 C 542.269531 550.074219 541.417969 549.265625 540.527344 548.496094 C 540.039062 548.050781 539.554688 547.644531 539.066406 547.203125 L 538.855469 547.011719 L 538.746094 546.917969 L 538.324219 546.558594 C 534.808594 543.433594 531.171875 540.429688 527.441406 537.519531 C 526.902344 537.09375 526.375 536.648438 525.828125 536.226562 C 525.582031 536.03125 525.324219 535.847656 525.070312 535.65625 C 523.390625 534.355469 521.722656 533.035156 520 531.808594 C 519.339844 531.300781 518.664062 530.8125 518 530.324219 C 513.332031 556.597656 508.78125 593.902344 505.941406 627.378906 L 505.941406 749.191406 L 621.855469 749.191406 C 621.898438 748.117188 621.972656 747.011719 622.015625 745.941406 " clip-rule="nonzero"/></clipPath><linearGradient x1="0.765147" gradientTransform="matrix(494.221707, 0, 0, -494.221707, 127.793879, 639.758923)" y1="0" x2="1" gradientUnits="userSpaceOnUse" y2="0" id="48f5c93351"><stop stop-opacity="1" stop-color="rgb(100%, 78.399658%, 24.699402%)" offset="0"/><stop stop-opacity="1" stop-color="rgb(100%, 78.399658%, 24.703979%)" offset="0.03125"/><stop stop-opacity="1" stop-color="rgb(100%, 78.399658%, 24.90387%)" offset="0.0625"/><stop stop-opacity="1" stop-color="rgb(100%, 78.399658%, 25.100708%)" offset="0.09375"/><stop stop-opacity="1" stop-color="rgb(100%, 78.399658%, 25.204468%)" offset="0.109375"/><stop stop-opacity="1" stop-color="rgb(100%, 78.399658%, 25.401306%)" offset="0.125"/><stop stop-opacity="1" stop-color="rgb(100%, 78.404236%, 25.50354%)" offset="0.15625"/><stop stop-opacity="1" stop-color="rgb(100%, 78.604126%, 25.70343%)" offset="0.1875"/><stop stop-opacity="1" stop-color="rgb(100%, 78.799438%, 25.999451%)" offset="0.203125"/><stop stop-opacity="1" stop-color="rgb(100%, 78.799438%, 26.199341%)" offset="0.21875"/><stop stop-opacity="1" stop-color="rgb(100%, 78.799438%, 26.301575%)" offset="0.25"/><stop stop-opacity="1" stop-color="rgb(100%, 78.799438%, 26.405334%)" offset="0.265625"/><stop stop-opacity="1" stop-color="rgb(100%, 78.799438%, 26.602173%)" offset="0.28125"/><stop stop-opacity="1" stop-color="rgb(100%, 78.799438%, 26.699829%)" offset="0.3125"/><stop stop-opacity="1" stop-color="rgb(100%, 78.799438%, 26.799011%)" offset="0.328125"/><stop stop-opacity="1" stop-color="rgb(100%, 78.799438%, 27.000427%)" offset="0.34375"/><stop stop-opacity="1" stop-color="rgb(100%, 78.901672%, 27.201843%)" offset="0.359375"/><stop stop-opacity="1" stop-color="rgb(100%, 79.100037%, 27.400208%)" offset="0.375"/><stop stop-opacity="1" stop-color="rgb(100%, 79.199219%, 27.648926%)" offset="0.4375"/><stop stop-opacity="1" stop-color="rgb(100%, 79.199219%, 27.798462%)" offset="0.46875"/><stop stop-opacity="1" stop-color="rgb(100%, 79.199219%, 27.900696%)" offset="0.484375"/><stop stop-opacity="1" stop-color="rgb(100%, 79.199219%, 28.102112%)" offset="0.5"/><stop stop-opacity="1" stop-color="rgb(100%, 79.199219%, 28.303528%)" offset="0.515625"/><stop stop-opacity="1" stop-color="rgb(100%, 79.202271%, 28.501892%)" offset="0.53125"/><stop stop-opacity="1" stop-color="rgb(100%, 79.400635%, 28.599548%)" offset="0.5625"/><stop stop-opacity="1" stop-color="rgb(100%, 79.597473%, 28.69873%)" offset="0.578125"/><stop stop-opacity="1" stop-color="rgb(100%, 79.598999%, 28.898621%)" offset="0.59375"/><stop stop-opacity="1" stop-color="rgb(100%, 79.598999%, 29.000854%)" offset="0.625"/><stop stop-opacity="1" stop-color="rgb(100%, 79.598999%, 29.103088%)" offset="0.640625"/><stop stop-opacity="1" stop-color="rgb(100%, 79.598999%, 29.304504%)" offset="0.65625"/><stop stop-opacity="1" stop-color="rgb(100%, 79.598999%, 29.600525%)" offset="0.6875"/><stop stop-opacity="1" stop-color="rgb(100%, 79.598999%, 29.797363%)" offset="0.71875"/><stop stop-opacity="1" stop-color="rgb(100%, 79.699707%, 29.899597%)" offset="0.734375"/><stop stop-opacity="1" stop-color="rgb(100%, 79.899597%, 30.099487%)" offset="0.75"/><stop stop-opacity="1" stop-color="rgb(100%, 79.998779%, 30.201721%)" offset="0.78125"/><stop stop-opacity="1" stop-color="rgb(100%, 79.998779%, 30.39856%)" offset="0.8125"/><stop stop-opacity="1" stop-color="rgb(100%, 79.998779%, 30.69458%)" offset="0.828125"/><stop stop-opacity="1" stop-color="rgb(100%, 79.998779%, 30.895996%)" offset="0.84375"/><stop stop-opacity="1" stop-color="rgb(100%, 79.998779%, 30.99823%)" offset="0.875"/><stop stop-opacity="1" stop-color="rgb(100%, 79.998779%, 31.100464%)" offset="0.890625"/><stop stop-opacity="1" stop-color="rgb(100%, 80.000305%, 31.300354%)" offset="0.90625"/><stop stop-opacity="1" stop-color="rgb(100%, 80.198669%, 31.399536%)" offset="0.9375"/><stop stop-opacity="1" stop-color="rgb(100%, 80.395508%, 31.497192%)" offset="0.953125"/><stop stop-opacity="1" stop-color="rgb(100%, 80.39856%, 31.695557%)" offset="0.96875"/><stop stop-opacity="1" stop-color="rgb(100%, 80.39856%, 31.896973%)" offset="0.984375"/><stop stop-opacity="1" stop-color="rgb(100%, 80.39856%, 32.098389%)" offset="1"/></linearGradient><clipPath id="9ddc4c5716"><path d="M 231.789062 499.347656 L 518 499.347656 L 518 749.191406 L 231.789062 749.191406 Z M 231.789062 499.347656 " clip-rule="nonzero"/></clipPath><clipPath id="fe447644af"><path d="M 518 530.324219 C 516.863281 529.484375 515.707031 528.660156 514.527344 527.839844 C 511.75 525.863281 508.925781 523.949219 506.082031 522.070312 C 505.5 521.6875 504.925781 521.3125 504.351562 520.933594 C 501.449219 519.050781 498.523438 517.203125 495.554688 515.425781 L 495.550781 515.425781 C 493.589844 514.25 491.617188 513.09375 489.628906 511.964844 C 488.046875 511.035156 486.425781 510.144531 484.847656 509.296875 C 484.445312 509.050781 484.039062 508.847656 483.671875 508.648438 C 481.890625 507.714844 480.152344 506.785156 478.371094 505.855469 C 473.941406 503.574219 469.417969 501.425781 464.851562 499.347656 L 435.054688 601.699219 L 310.542969 601.699219 L 282.292969 500.765625 C 277.859375 502.832031 273.464844 504.957031 269.164062 507.230469 C 268.328125 507.664062 267.492188 508.121094 266.65625 508.566406 L 266.128906 508.847656 C 264.671875 509.660156 263.210938 510.46875 261.753906 511.277344 C 260.214844 512.171875 258.679688 513.023438 257.136719 513.953125 C 255.152344 515.125 253.210938 516.339844 251.226562 517.554688 L 251.09375 517.640625 C 249.535156 518.628906 247.984375 519.632812 246.445312 520.660156 C 245.8125 521.078125 245.183594 521.507812 244.550781 521.933594 C 243.609375 522.574219 242.675781 523.21875 241.742188 523.875 C 240.988281 524.398438 240.238281 524.925781 239.492188 525.457031 C 238.726562 526.007812 237.972656 526.570312 237.214844 527.128906 C 235.570312 528.34375 233.933594 529.585938 232.3125 530.855469 L 232.089844 531.027344 L 231.789062 531.265625 C 235.890625 551.394531 239.886719 577.769531 242.371094 603.90625 L 242.371094 749.191406 L 505.945312 749.191406 L 505.945312 627.378906 C 508.78125 593.902344 513.335938 556.597656 518 530.324219 Z M 518 530.324219 " clip-rule="nonzero"/></clipPath><clipPath id="d641adcf0c"><path d="M 518 530.324219 C 516.863281 529.484375 515.707031 528.660156 514.527344 527.839844 C 511.75 525.863281 508.925781 523.949219 506.082031 522.070312 C 505.5 521.6875 504.925781 521.3125 504.351562 520.933594 C 501.449219 519.050781 498.523438 517.203125 495.554688 515.425781 L 495.550781 515.425781 C 493.589844 514.25 491.617188 513.09375 489.628906 511.964844 C 488.046875 511.035156 486.425781 510.144531 484.847656 509.296875 C 484.445312 509.050781 484.039062 508.847656 483.671875 508.648438 C 481.890625 507.714844 480.152344 506.785156 478.371094 505.855469 C 473.941406 503.574219 469.417969 501.425781 464.851562 499.347656 L 435.054688 601.699219 L 310.542969 601.699219 L 282.292969 500.765625 C 277.859375 502.832031 273.464844 504.957031 269.164062 507.230469 C 268.328125 507.664062 267.492188 508.121094 266.65625 508.566406 L 266.128906 508.847656 C 264.671875 509.660156 263.210938 510.46875 261.753906 511.277344 C 260.214844 512.171875 258.679688 513.023438 257.136719 513.953125 C 255.152344 515.125 253.210938 516.339844 251.226562 517.554688 L 251.09375 517.640625 C 249.535156 518.628906 247.984375 519.632812 246.445312 520.660156 C 245.8125 521.078125 245.183594 521.507812 244.550781 521.933594 C 243.609375 522.574219 242.675781 523.21875 241.742188 523.875 C 240.988281 524.398438 240.238281 524.925781 239.492188 525.457031 C 238.726562 526.007812 237.972656 526.570312 237.214844 527.128906 C 235.570312 528.34375 233.933594 529.585938 232.3125 530.855469 L 232.089844 531.027344 L 231.789062 531.265625 C 235.890625 551.394531 239.886719 577.769531 242.371094 603.90625 L 242.371094 749.191406 L 505.945312 749.191406 L 505.945312 627.378906 C 508.78125 593.902344 513.335938 556.597656 518 530.324219 " clip-rule="nonzero"/></clipPath><linearGradient x1="0.210423" gradientTransform="matrix(494.221707, 0, 0, -494.221707, 127.794306, 624.270338)" y1="0" x2="0.789536" gradientUnits="userSpaceOnUse" y2="0" id="83df103676"><stop stop-opacity="1" stop-color="rgb(100%, 73.298645%, 6.716919%)" offset="0"/><stop stop-opacity="1" stop-color="rgb(100%, 73.298645%, 6.907654%)" offset="0.015625"/><stop stop-opacity="1" stop-color="rgb(100%, 73.298645%, 7.110596%)" offset="0.03125"/><stop stop-opacity="1" stop-color="rgb(100%, 73.304749%, 7.315063%)" offset="0.046875"/><stop stop-opacity="1" stop-color="rgb(100%, 73.506165%, 7.655334%)" offset="0.0625"/><stop stop-opacity="1" stop-color="rgb(100%, 73.699951%, 7.907104%)" offset="0.0703125"/><stop stop-opacity="1" stop-color="rgb(100%, 73.699951%, 8.103943%)" offset="0.078125"/><stop stop-opacity="1" stop-color="rgb(100%, 73.699951%, 8.203125%)" offset="0.09375"/><stop stop-opacity="1" stop-color="rgb(100%, 73.699951%, 8.311462%)" offset="0.101563"/><stop stop-opacity="1" stop-color="rgb(100%, 73.699951%, 8.518982%)" offset="0.109375"/><stop stop-opacity="1" stop-color="rgb(100%, 73.706055%, 8.818054%)" offset="0.125"/><stop stop-opacity="1" stop-color="rgb(100%, 73.905945%, 9.205627%)" offset="0.140625"/><stop stop-opacity="1" stop-color="rgb(100%, 74.099731%, 9.408569%)" offset="0.15625"/><stop stop-opacity="1" stop-color="rgb(100%, 74.099731%, 9.613037%)" offset="0.171875"/><stop stop-opacity="1" stop-color="rgb(100%, 74.099731%, 10.002136%)" offset="0.1875"/><stop stop-opacity="1" stop-color="rgb(100%, 74.099731%, 10.301208%)" offset="0.195313"/><stop stop-opacity="1" stop-color="rgb(100%, 74.105835%, 10.501099%)" offset="0.203125"/><stop stop-opacity="1" stop-color="rgb(100%, 74.305725%, 10.600281%)" offset="0.21875"/><stop stop-opacity="1" stop-color="rgb(100%, 74.499512%, 10.707092%)" offset="0.226563"/><stop stop-opacity="1" stop-color="rgb(100%, 74.499512%, 10.914612%)" offset="0.234375"/><stop stop-opacity="1" stop-color="rgb(100%, 74.499512%, 11.209106%)" offset="0.25"/><stop stop-opacity="1" stop-color="rgb(100%, 74.499512%, 11.399841%)" offset="0.265625"/><stop stop-opacity="1" stop-color="rgb(100%, 74.499512%, 11.502075%)" offset="0.273438"/><stop stop-opacity="1" stop-color="rgb(100%, 74.505615%, 11.709595%)" offset="0.28125"/><stop stop-opacity="1" stop-color="rgb(100%, 74.705505%, 12.007141%)" offset="0.296875"/><stop stop-opacity="1" stop-color="rgb(100%, 74.899292%, 12.347412%)" offset="0.3125"/><stop stop-opacity="1" stop-color="rgb(100%, 74.899292%, 12.5%)" offset="0.328125"/><stop stop-opacity="1" stop-color="rgb(100%, 74.899292%, 12.702942%)" offset="0.34375"/><stop stop-opacity="1" stop-color="rgb(100%, 75.001526%, 13.002014%)" offset="0.351563"/><stop stop-opacity="1" stop-color="rgb(100%, 75.201416%, 13.209534%)" offset="0.359375"/><stop stop-opacity="1" stop-color="rgb(100%, 75.299072%, 13.505554%)" offset="0.375"/><stop stop-opacity="1" stop-color="rgb(100%, 75.299072%, 13.699341%)" offset="0.390625"/><stop stop-opacity="1" stop-color="rgb(100%, 75.299072%, 13.800049%)" offset="0.398438"/><stop stop-opacity="1" stop-color="rgb(100%, 75.299072%, 14.004517%)" offset="0.40625"/><stop stop-opacity="1" stop-color="rgb(100%, 75.299072%, 14.303589%)" offset="0.421875"/><stop stop-opacity="1" stop-color="rgb(100%, 75.492859%, 14.692688%)" offset="0.4375"/><stop stop-opacity="1" stop-color="rgb(100%, 75.692749%, 14.89563%)" offset="0.453125"/><stop stop-opacity="1" stop-color="rgb(100%, 75.698853%, 15.098572%)" offset="0.46875"/><stop stop-opacity="1" stop-color="rgb(100%, 75.698853%, 15.397644%)" offset="0.476563"/><stop stop-opacity="1" stop-color="rgb(100%, 75.698853%, 15.605164%)" offset="0.484375"/><stop stop-opacity="1" stop-color="rgb(100%, 75.698853%, 15.90271%)" offset="0.5"/><stop stop-opacity="1" stop-color="rgb(100%, 75.892639%, 16.098022%)" offset="0.515625"/><stop stop-opacity="1" stop-color="rgb(100%, 76.092529%, 16.197205%)" offset="0.523438"/><stop stop-opacity="1" stop-color="rgb(100%, 76.098633%, 16.400146%)" offset="0.53125"/><stop stop-opacity="1" stop-color="rgb(100%, 76.098633%, 16.697693%)" offset="0.546875"/><stop stop-opacity="1" stop-color="rgb(100%, 76.098633%, 17.088318%)" offset="0.5625"/><stop stop-opacity="1" stop-color="rgb(100%, 76.293945%, 17.437744%)" offset="0.59375"/><stop stop-opacity="1" stop-color="rgb(100%, 76.493835%, 17.694092%)" offset="0.601562"/><stop stop-opacity="1" stop-color="rgb(100%, 76.499939%, 17.900085%)" offset="0.609375"/><stop stop-opacity="1" stop-color="rgb(100%, 76.499939%, 18.197632%)" offset="0.625"/><stop stop-opacity="1" stop-color="rgb(100%, 76.499939%, 18.395996%)" offset="0.640625"/><stop stop-opacity="1" stop-color="rgb(100%, 76.499939%, 18.495178%)" offset="0.648438"/><stop stop-opacity="1" stop-color="rgb(100%, 76.499939%, 18.695068%)" offset="0.65625"/><stop stop-opacity="1" stop-color="rgb(100%, 76.693726%, 18.992615%)" offset="0.671875"/><stop stop-opacity="1" stop-color="rgb(100%, 76.893616%, 19.38324%)" offset="0.6875"/><stop stop-opacity="1" stop-color="rgb(100%, 76.899719%, 19.589233%)" offset="0.703125"/><stop stop-opacity="1" stop-color="rgb(100%, 76.899719%, 19.792175%)" offset="0.71875"/><stop stop-opacity="1" stop-color="rgb(100%, 76.994324%, 20.08667%)" offset="0.726562"/><stop stop-opacity="1" stop-color="rgb(100%, 77.194214%, 20.294189%)" offset="0.734375"/><stop stop-opacity="1" stop-color="rgb(100%, 77.2995%, 20.399475%)" offset="0.75"/><stop stop-opacity="1" stop-color="rgb(100%, 77.2995%, 20.588684%)" offset="0.765625"/><stop stop-opacity="1" stop-color="rgb(100%, 77.2995%, 20.881653%)" offset="0.773437"/><stop stop-opacity="1" stop-color="rgb(100%, 77.2995%, 21.089172%)" offset="0.78125"/><stop stop-opacity="1" stop-color="rgb(100%, 77.2995%, 21.388245%)" offset="0.796875"/><stop stop-opacity="1" stop-color="rgb(100%, 77.43988%, 21.591187%)" offset="0.8125"/><stop stop-opacity="1" stop-color="rgb(100%, 77.589417%, 21.792603%)" offset="0.828125"/><stop stop-opacity="1" stop-color="rgb(100%, 77.598572%, 22.183228%)" offset="0.84375"/><stop stop-opacity="1" stop-color="rgb(100%, 77.598572%, 22.538757%)" offset="0.875"/><stop stop-opacity="1" stop-color="rgb(100%, 77.786255%, 22.886658%)" offset="0.890625"/><stop stop-opacity="1" stop-color="rgb(100%, 77.986145%, 23.176575%)" offset="0.898438"/><stop stop-opacity="1" stop-color="rgb(100%, 77.999878%, 23.384094%)" offset="0.90625"/><stop stop-opacity="1" stop-color="rgb(100%, 77.999878%, 23.683167%)" offset="0.921875"/><stop stop-opacity="1" stop-color="rgb(100%, 77.999878%, 23.88916%)" offset="0.9375"/><stop stop-opacity="1" stop-color="rgb(100%, 77.999878%, 24.090576%)" offset="0.953125"/><stop stop-opacity="1" stop-color="rgb(100%, 78.186035%, 24.478149%)" offset="0.96875"/><stop stop-opacity="1" stop-color="rgb(100%, 78.385925%, 24.777222%)" offset="0.976562"/><stop stop-opacity="1" stop-color="rgb(100%, 78.399658%, 24.984741%)" offset="0.984375"/><stop stop-opacity="1" stop-color="rgb(100%, 78.399658%, 25.093079%)" offset="1"/></linearGradient><clipPath id="2724d46e1d"><path d="M 127.5 491 L 622.5 491 L 622.5 750 L 127.5 750 Z M 127.5 491 " clip-rule="nonzero"/></clipPath></defs><path fill="#6b241b" d="M 330.222656 528.964844 C 330.222656 528.964844 575.351562 588.195312 526.851562 375.609375 C 490.84375 217.789062 330.222656 528.964844 330.222656 528.964844 " fill-opacity="1" fill-rule="nonzero"/><path fill="#782f22" d="M 380.113281 133.300781 C 380.113281 133.300781 248.191406 47.601562 209.171875 244.71875 C 209.171875 244.71875 160.863281 499.691406 242.613281 518.976562 C 324.371094 538.261719 355.957031 574.683594 355.957031 574.683594 L 380.113281 133.300781 " fill-opacity="1" fill-rule="nonzero"/><path fill="#fa9c78" d="M 468.988281 324.972656 C 469.621094 349.171875 489.546875 360.386719 513.75 359.757812 C 537.949219 359.125 557.195312 344.433594 556.566406 320.234375 C 555.933594 296.03125 546.621094 271.203125 522.417969 271.835938 C 498.214844 272.464844 468.359375 300.769531 468.988281 324.972656 " fill-opacity="1" fill-rule="nonzero"/><path fill="#fa9c78" d="M 280.808594 324.972656 C 280.175781 349.171875 260.25 360.386719 236.050781 359.757812 C 211.847656 359.125 192.597656 344.433594 193.230469 320.234375 C 193.863281 296.03125 203.179688 271.203125 227.382812 271.835938 C 251.582031 272.464844 281.4375 300.769531 280.808594 324.972656 " fill-opacity="1" fill-rule="nonzero"/><path fill="#ea8668" d="M 248.167969 339.761719 C 245.21875 331.152344 241.617188 322.761719 237.410156 314.691406 C 236.136719 312.242188 234.789062 309.796875 233.003906 307.6875 C 230.976562 305.300781 228.441406 303.402344 225.929688 301.527344 C 222.75 299.160156 219.480469 296.742188 215.671875 295.664062 C 214.171875 295.238281 212.472656 295.050781 211.121094 295.832031 C 209.6875 296.65625 209.007812 298.347656 208.644531 299.960938 C 207.027344 307.082031 209.792969 313.441406 212.851562 319.683594 C 216.167969 326.460938 222.816406 332.367188 228.828125 336.78125 C 233.886719 340.503906 240.070312 345.117188 246.59375 341.683594 " fill-opacity="1" fill-rule="nonzero"/><path fill="#dd765e" d="M 230.238281 313.621094 C 232.699219 313.722656 234.902344 314.351562 236.660156 315.105469 C 236.191406 314.355469 235.777344 313.601562 235.269531 312.847656 C 230.78125 306.0625 225.1875 301.148438 220.628906 298.441406 C 216.136719 295.511719 212.789062 295.445312 212.761719 295.023438 C 212.746094 294.835938 213.609375 294.515625 215.230469 294.601562 C 216.835938 294.675781 219.144531 295.28125 221.667969 296.523438 C 226.785156 298.882812 233.089844 303.953125 237.828125 311.128906 C 242.625 318.296875 244.90625 325.757812 246.226562 331.078125 C 247.519531 336.4375 247.9375 339.816406 247.9375 339.816406 C 247.9375 339.816406 246.363281 335.726562 244.757812 331.550781 C 243.191406 327.664062 241.070312 322.675781 238.128906 317.503906 L 237.984375 317.480469 C 235.921875 317.125 233.152344 316.828125 230.113281 316.699219 C 224.007812 316.398438 219.140625 318.054688 218.769531 317.242188 C 218.328125 316.554688 223.261719 313.3125 230.238281 313.621094 " fill-opacity="1" fill-rule="nonzero"/><path fill="#fa9c78" d="M 360.246094 465.5 C 350.738281 465.5 341.585938 463.542969 332.945312 459.90625 L 332.945312 479.136719 C 380.109375 515.996094 416.855469 479.136719 416.855469 479.136719 L 416.855469 438.984375 C 401.136719 455.640625 381.523438 465.5 360.246094 465.5 " fill-opacity="1" fill-rule="nonzero"/><path fill="#ea8668" d="M 332.945312 427.769531 L 332.945312 459.90625 C 341.585938 463.542969 350.738281 465.5 360.246094 465.5 C 381.523438 465.5 401.136719 455.640625 416.855469 438.984375 L 416.855469 427.769531 C 403.695312 432.265625 389.585938 434.71875 374.890625 434.71875 C 360.210938 434.71875 346.105469 432.257812 332.945312 427.769531 " fill-opacity="1" fill-rule="nonzero"/><path fill="#fa9c78" d="M 466.703125 139.128906 C 452.84375 125.269531 435.832031 114.523438 416.867188 108.085938 C 403.71875 103.554688 389.59375 101.109375 374.886719 101.109375 C 322.96875 101.109375 278.109375 131.625 257.367188 175.726562 C 249.460938 192.472656 245.0625 211.171875 245.0625 230.9375 L 245.0625 304.894531 C 245.0625 307.289062 245.109375 309.640625 245.242188 311.996094 C 245.996094 326.078125 248.972656 339.535156 253.902344 352.0625 L 253.902344 352.105469 C 256.433594 358.546875 259.453125 364.71875 262.917969 370.582031 C 265.449219 374.9375 268.246094 379.15625 271.3125 383.15625 C 272.378906 384.578125 273.445312 385.953125 274.601562 387.285156 C 289.730469 405.75 309.878906 419.902344 332.945312 427.769531 C 346.109375 432.257812 360.210938 434.71875 374.886719 434.71875 C 389.585938 434.71875 403.695312 432.261719 416.859375 427.769531 C 433.050781 422.238281 447.792969 413.613281 460.394531 402.558594 L 460.4375 402.558594 C 465.765625 397.898438 470.695312 392.792969 475.183594 387.285156 C 476.335938 385.953125 477.40625 384.578125 478.464844 383.15625 C 481.492188 379.15625 484.332031 374.9375 486.867188 370.582031 C 490.332031 364.679688 493.347656 358.5 495.882812 352.0625 C 500.8125 339.535156 503.789062 326.078125 504.539062 311.996094 C 504.675781 309.640625 504.71875 307.289062 504.71875 304.894531 L 504.71875 230.9375 C 504.71875 195.089844 490.195312 162.625 466.703125 139.128906 " fill-opacity="1" fill-rule="nonzero"/><path fill="#ea8668" d="M 501.628906 339.761719 C 504.582031 331.152344 508.183594 322.761719 512.386719 314.691406 C 513.660156 312.242188 515.007812 309.796875 516.792969 307.6875 C 518.824219 305.300781 521.359375 303.402344 523.867188 301.527344 C 527.042969 299.160156 530.3125 296.742188 534.125 295.664062 C 535.628906 295.238281 537.324219 295.050781 538.675781 295.832031 C 540.109375 296.65625 540.789062 298.347656 541.152344 299.960938 C 542.765625 307.082031 540 313.441406 536.945312 319.683594 C 533.628906 326.460938 526.980469 332.367188 520.972656 336.78125 C 515.910156 340.503906 509.726562 345.117188 503.203125 341.683594 " fill-opacity="1" fill-rule="nonzero"/><path fill="#dd765e" d="M 519.558594 313.621094 C 517.097656 313.722656 514.894531 314.351562 513.140625 315.105469 C 513.605469 314.355469 514.019531 313.601562 514.527344 312.847656 C 519.019531 306.0625 524.609375 301.148438 529.167969 298.441406 C 533.660156 295.511719 537.007812 295.445312 537.03125 295.023438 C 537.050781 294.835938 536.191406 294.515625 534.570312 294.601562 C 532.960938 294.675781 530.652344 295.28125 528.128906 296.523438 C 523.011719 298.882812 516.707031 303.953125 511.964844 311.128906 C 507.171875 318.296875 504.894531 325.757812 503.570312 331.078125 C 502.273438 336.4375 501.859375 339.816406 501.859375 339.816406 C 501.859375 339.816406 503.429688 335.726562 505.039062 331.550781 C 506.605469 327.664062 508.722656 322.675781 511.667969 317.503906 L 511.8125 317.480469 C 513.871094 317.125 516.644531 316.828125 519.683594 316.699219 C 525.789062 316.398438 530.65625 318.054688 531.027344 317.242188 C 531.46875 316.554688 526.535156 313.3125 519.558594 313.621094 " fill-opacity="1" fill-rule="nonzero"/><g clip-path="url(#f99dc857f8)"><g clip-path="url(#b042c7e728)"><g clip-path="url(#e639849184)"><path fill="#112329" d="M 621.660156 750 L 621.660156 746.757812 L 622.214844 746.757812 L 622.214844 750 Z M 621.660156 750 " fill-opacity="1" fill-rule="nonzero"/></g></g></g><path fill="#6b241b" d="M 277.636719 239.15625 C 280.894531 234.664062 283.585938 219.277344 303.460938 214.339844 C 319.964844 210.292969 324.121094 218.15625 328.726562 225.34375 C 333.441406 232.867188 316.710938 232.417969 305.484375 232.636719 C 296.839844 232.753906 281.34375 241.289062 277.636719 239.15625 " fill-opacity="1" fill-rule="evenodd"/><path fill="#6b241b" d="M 463.066406 239.15625 C 459.808594 234.664062 457.113281 219.277344 437.242188 214.339844 C 420.738281 210.292969 416.582031 218.15625 411.976562 225.34375 C 407.261719 232.867188 423.988281 232.417969 435.21875 232.636719 C 443.863281 232.753906 459.363281 241.289062 463.066406 239.15625 " fill-opacity="1" fill-rule="evenodd"/><path fill="#dd765e" d="M 386.898438 258.46875 C 392.601562 255.324219 371.03125 285.738281 376.484375 309.210938 C 379.789062 323.09375 395.660156 324.582031 392.851562 332.351562 C 388.46875 344.585938 363.429688 348.878906 365.328125 340.039062 C 367.890625 341.941406 380.949219 335.492188 375.90625 328.960938 C 369.128906 320.121094 364.089844 278.132812 386.898438 258.46875 " fill-opacity="1" fill-rule="evenodd"/><path fill="#e54141" d="M 387.480469 365 C 392.105469 364.585938 387.890625 373.507812 375.246094 374.421875 C 370.785156 374.75 362.1875 373.507812 359.792969 368.796875 C 358.054688 365.246094 360.699219 364.914062 361.691406 365.246094 C 384.832031 372.683594 384.5 362.769531 387.480469 365 " fill-opacity="1" fill-rule="evenodd"/><path fill="#fc7a67" d="M 278.324219 303.726562 C 258.882812 303.726562 255.421875 322.636719 264.78125 328.3125 C 266.046875 329.113281 272.144531 330.953125 277.964844 330.953125 C 279.609375 330.953125 281.226562 330.804688 282.710938 330.449219 C 305.417969 325.324219 299.015625 307.226562 285.527344 304.492188 C 282.921875 303.96875 280.519531 303.726562 278.324219 303.726562 " fill-opacity="1" fill-rule="nonzero"/><path fill="#fc7a67" d="M 471.441406 300.652344 C 451.992188 300.652344 448.539062 319.5625 457.898438 325.238281 C 459.242188 326.046875 465.425781 327.921875 471.285156 327.921875 C 472.851562 327.921875 474.398438 327.785156 475.824219 327.460938 C 484.441406 325.484375 488.867188 321.652344 490.304688 317.507812 C 488.984375 313.105469 487.453125 308.839844 485.734375 304.695312 C 483.777344 303.136719 481.351562 301.96875 478.644531 301.417969 C 476.035156 300.894531 473.636719 300.652344 471.441406 300.652344 " fill-opacity="1" fill-rule="nonzero"/><path fill="#fefefe" d="M 336.339844 288.292969 C 322.902344 221.613281 286.328125 256.71875 277.207031 276.132812 C 281.523438 288.882812 313 299.859375 336.339844 288.292969 " fill-opacity="1" fill-rule="evenodd"/><path fill="#141515" d="M 315.746094 250.539062 C 282.40625 252.105469 295.152344 300.355469 325.652344 292.019531 C 328.003906 290.449219 334.28125 284.074219 334.179688 278.976562 C 333.691406 266.421875 321.53125 250.246094 315.746094 250.539062 " fill-opacity="1" fill-rule="evenodd"/><path fill="#141515" d="M 269.070312 270.25 C 276.914062 273.484375 277.996094 265.347656 286.425781 256.519531 C 314.960938 226.613281 341.242188 267.992188 337.808594 288.585938 C 332.023438 268.976562 324.179688 251.816406 311.234375 252.105469 C 308.195312 252.203125 302.019531 253.1875 296.429688 256.71875 C 290.351562 260.539062 284.859375 267.113281 280.25 273.1875 C 275.765625 279.109375 272.429688 276.285156 270.613281 273.460938 C 269.574219 271.839844 269.035156 270.214844 269.070312 270.25 " fill-opacity="1" fill-rule="evenodd"/><path fill="#fefefe" d="M 320.746094 262.210938 C 315.160156 262.40625 316.628906 270.050781 321.824219 268.582031 C 322.21875 268.386719 323.492188 267.796875 323.886719 266.914062 C 325.160156 264.167969 321.726562 262.113281 320.746094 262.210938 " fill-opacity="1" fill-rule="evenodd"/><path fill="#fefefe" d="M 412.933594 288.292969 C 426.363281 221.613281 462.945312 256.71875 472.058594 276.132812 C 467.75 288.882812 436.273438 299.859375 412.933594 288.292969 " fill-opacity="1" fill-rule="evenodd"/><path fill="#141515" d="M 433.523438 250.539062 C 466.863281 252.105469 454.121094 300.351562 423.621094 292.019531 C 421.269531 290.449219 414.992188 284.074219 415.089844 278.976562 C 415.578125 266.421875 427.742188 250.246094 433.523438 250.539062 " fill-opacity="1" fill-rule="evenodd"/><path fill="#141515" d="M 480.203125 270.25 C 472.355469 273.484375 471.277344 265.347656 462.84375 256.519531 C 434.3125 226.613281 408.03125 267.992188 411.460938 288.585938 C 417.25 268.976562 425.089844 251.816406 438.035156 252.105469 C 441.078125 252.203125 447.25 253.1875 452.84375 256.71875 C 458.921875 260.539062 464.414062 267.113281 469.023438 273.1875 C 473.503906 279.109375 476.839844 276.285156 478.65625 273.460938 C 479.699219 271.839844 480.238281 270.214844 480.203125 270.25 " fill-opacity="1" fill-rule="evenodd"/><path fill="#fefefe" d="M 445.019531 261.511719 C 439.589844 261.792969 442.828125 270.089844 447.5 268.5625 C 447.78125 268.277344 448.929688 267.707031 449.117188 266.753906 C 449.691406 263.605469 445.972656 261.414062 445.019531 261.511719 " fill-opacity="1" fill-rule="evenodd"/><path fill="#fa9c78" d="M 416.863281 108.085938 C 403.71875 103.546875 389.59375 101.109375 374.886719 101.109375 C 322.96875 101.109375 278.109375 131.625 257.367188 175.726562 C 252.0625 186.960938 248.382812 199.089844 246.503906 211.816406 L 421.753906 109.902344 C 420.132812 109.277344 418.515625 108.644531 416.863281 108.085938 " fill-opacity="1" fill-rule="nonzero"/><g clip-path="url(#dce2d69760)"><g clip-path="url(#355be0d408)"><g clip-path="url(#4de40dbcd6)"><path fill="url(#73f9cc6792)" d="M 127.792969 749.191406 L 127.792969 531.265625 L 242.371094 531.265625 L 242.371094 749.191406 Z M 127.792969 749.191406 " fill-rule="nonzero"/></g></g></g><g clip-path="url(#04a93588ee)"><g clip-path="url(#a932bffaff)"><g clip-path="url(#bdbfde7c93)"><path fill="url(#48f5c93351)" d="M 505.945312 749.191406 L 505.945312 530.324219 L 622.015625 530.324219 L 622.015625 749.191406 Z M 505.945312 749.191406 " fill-rule="nonzero"/></g></g></g><g clip-path="url(#9ddc4c5716)"><g clip-path="url(#fe447644af)"><g clip-path="url(#d641adcf0c)"><path fill="url(#83df103676)" d="M 231.789062 749.191406 L 231.789062 499.347656 L 518 499.347656 L 518 749.191406 Z M 231.789062 749.191406 " fill-rule="nonzero"/></g></g></g><g clip-path="url(#2724d46e1d)"><path fill="#112329" d="M 609.007812 668.199219 C 597.625 619.242188 583.574219 594.78125 567.175781 575.464844 C 566.207031 574.332031 565.234375 573.199219 564.222656 572.0625 C 562.515625 570.203125 560.855469 568.378906 559.15625 566.597656 L 559.15625 566.554688 C 558.789062 566.183594 558.425781 565.808594 558.0625 565.4375 C 556.6875 564.027344 555.3125 562.617188 553.933594 561.210938 C 552.269531 559.511719 550.527344 557.851562 548.828125 556.1875 C 546.96875 554.363281 545.0625 552.585938 543.121094 550.847656 C 542.269531 550.074219 541.417969 549.265625 540.527344 548.496094 C 540.039062 548.050781 539.554688 547.644531 539.070312 547.203125 L 538.855469 547.011719 L 538.746094 546.917969 L 538.324219 546.558594 C 534.808594 543.433594 531.171875 540.429688 527.441406 537.519531 C 526.902344 537.09375 526.375 536.648438 525.828125 536.226562 C 525.582031 536.03125 525.324219 535.847656 525.070312 535.65625 C 523.394531 534.355469 521.722656 533.035156 520 531.808594 C 519.339844 531.300781 518.671875 530.8125 518.003906 530.324219 L 517.992188 530.3125 C 516.851562 529.480469 515.699219 528.660156 514.527344 527.839844 C 511.75 525.863281 508.925781 523.953125 506.082031 522.070312 C 505.503906 521.691406 504.925781 521.3125 504.347656 520.9375 C 501.449219 519.050781 498.523438 517.207031 495.550781 515.429688 C 493.589844 514.25 491.617188 513.09375 489.625 511.96875 C 488.046875 511.039062 486.421875 510.148438 484.847656 509.296875 C 484.441406 509.050781 484.035156 508.847656 483.671875 508.648438 C 481.890625 507.71875 480.148438 506.785156 478.367188 505.855469 C 476.0625 504.667969 473.730469 503.523438 471.386719 502.398438 C 469.234375 501.363281 467.066406 500.359375 464.886719 499.367188 L 464.851562 499.351562 C 463.65625 498.808594 462.480469 498.242188 461.277344 497.710938 L 446.097656 491.070312 L 374.847656 494.488281 L 297.417969 493.996094 L 288.925781 497.710938 C 284.804688 499.527344 280.742188 501.445312 276.71875 503.425781 C 274.179688 504.65625 271.652344 505.917969 269.164062 507.230469 C 268.328125 507.667969 267.492188 508.121094 266.652344 508.566406 L 266.128906 508.847656 C 264.667969 509.660156 263.210938 510.46875 261.753906 511.277344 C 260.214844 512.171875 258.675781 513.023438 257.136719 513.953125 C 255.152344 515.128906 253.210938 516.339844 251.222656 517.558594 L 251.09375 517.640625 C 249.535156 518.628906 247.984375 519.636719 246.445312 520.660156 C 245.8125 521.082031 245.179688 521.507812 244.546875 521.933594 C 243.609375 522.574219 242.675781 523.21875 241.742188 523.875 C 240.992188 524.398438 240.238281 524.925781 239.492188 525.457031 C 238.730469 526.007812 237.972656 526.570312 237.214844 527.128906 C 235.566406 528.347656 233.933594 529.585938 232.3125 530.855469 L 232.085938 531.03125 C 231.746094 531.296875 231.402344 531.566406 231.058594 531.835938 C 230 532.679688 228.949219 533.535156 227.898438 534.402344 C 227.574219 534.667969 227.25 534.941406 226.925781 535.214844 C 225.964844 536.019531 225.023438 536.855469 224.074219 537.683594 C 221.476562 539.933594 218.902344 542.242188 216.378906 544.667969 L 216.167969 544.863281 C 215.035156 545.960938 213.90625 547.074219 212.785156 548.203125 L 212.238281 548.761719 C 211.382812 549.632812 210.519531 550.476562 209.679688 551.371094 C 208.453125 552.660156 207.242188 553.976562 206.039062 555.324219 C 204.839844 556.664062 203.644531 558.03125 202.460938 559.414062 C 202.226562 559.6875 201.992188 559.953125 201.761719 560.230469 C 200.800781 561.363281 199.847656 562.515625 198.898438 563.679688 C 198.640625 563.996094 198.382812 564.320312 198.128906 564.636719 L 197.941406 564.875 C 195.960938 567.34375 194.019531 569.921875 192.097656 572.550781 C 191.222656 573.742188 190.347656 574.914062 189.488281 576.136719 C 189.0625 576.742188 188.636719 577.34375 188.210938 577.957031 C 187.457031 579.054688 186.703125 580.171875 185.957031 581.296875 C 185.449219 582.058594 184.949219 582.832031 184.445312 583.601562 C 183.738281 584.691406 183.035156 585.777344 182.335938 586.886719 C 181.65625 587.980469 180.984375 589.097656 180.308594 590.210938 C 179.371094 591.761719 178.441406 593.332031 177.519531 594.929688 C 176.863281 596.0625 176.210938 597.207031 175.5625 598.367188 C 175.015625 599.347656 174.472656 600.34375 173.929688 601.34375 C 173.253906 602.59375 172.585938 603.851562 171.917969 605.132812 C 171.4375 606.050781 170.953125 606.964844 170.480469 607.898438 C 169.394531 610.03125 168.320312 612.191406 167.261719 614.402344 C 167.003906 614.9375 166.753906 615.496094 166.496094 616.039062 C 165.621094 617.890625 164.757812 619.761719 163.902344 621.667969 C 163.527344 622.496094 163.160156 623.339844 162.789062 624.183594 C 162.011719 625.945312 161.246094 627.738281 160.484375 629.554688 C 160.160156 630.320312 159.839844 631.078125 159.519531 631.851562 C 158.460938 634.4375 157.40625 637.058594 156.375 639.742188 L 156.289062 639.96875 C 155.285156 642.585938 154.296875 645.265625 153.320312 647.976562 C 153.042969 648.75 152.769531 649.535156 152.492188 650.316406 C 151.734375 652.460938 150.984375 654.636719 150.246094 656.847656 C 149.976562 657.644531 149.707031 658.4375 149.441406 659.242188 C 148.480469 662.167969 147.53125 665.121094 146.597656 668.160156 L 146.582031 668.199219 C 139.335938 691.730469 133.058594 718.535156 127.792969 749.191406 L 621.855469 749.191406 C 621.898438 748.117188 621.972656 747.011719 622.015625 745.941406 C 618.183594 714.570312 613.859375 689.140625 609.007812 668.199219 " fill-opacity="1" fill-rule="nonzero"/></g><path fill="#782f22" d="M 538.332031 164.40625 L 324.167969 176.59375 C 349.980469 194.007812 468.949219 229.855469 492.027344 323.839844 C 520.257812 438.773438 491.410156 517.984375 467.964844 558.023438 C 479.152344 552.742188 565.351562 547.355469 562.304688 394.035156 C 561.023438 329.84375 543.304688 204.84375 538.332031 164.40625 " fill-opacity="1" fill-rule="nonzero"/><path fill="#0f2228" d="M 563.980469 171.507812 L 520.796875 56.128906 L 375.625 1.0625 L 375.625 0 L 375.625 0.535156 L 375.625 0 L 375.625 1.0625 L 229.429688 56.128906 L 185.828125 171.507812 L 268.394531 192.113281 L 374.753906 184.226562 L 481.191406 192.113281 L 563.980469 171.507812 " fill-opacity="1" fill-rule="nonzero"/><path fill="#010202" d="M 523.003906 182.222656 C 523.003906 182.222656 523.003906 155.253906 489.839844 122.890625 C 475.378906 108.78125 430.242188 89.660156 375.726562 93.355469 C 321.203125 89.660156 276.066406 108.78125 261.605469 122.890625 C 228.445312 155.253906 228.445312 182.222656 228.445312 182.222656 L 375.726562 179.5 L 523.003906 182.222656 " fill-opacity="1" fill-rule="nonzero"/><path fill="#e0e0e0" d="M 396.226562 59.898438 L 375.59375 62.644531 L 354.636719 59.898438 L 345.046875 112.121094 L 375.59375 125.867188 L 405.503906 112.121094 L 396.226562 59.898438 " fill-opacity="1" fill-rule="nonzero"/><path fill="#f1cbbf" d="M 543.898438 193.003906 C 543.898438 193.003906 543.324219 193.4375 542.164062 194.203125 C 542.257812 194.933594 542.355469 195.671875 542.453125 196.410156 C 542.945312 195.296875 543.425781 194.152344 543.898438 193.003906 M 218.402344 201.992188 C 218.402344 201.992188 218.988281 202.320312 220.105469 202.945312 C 220.15625 202.792969 220.207031 202.644531 220.257812 202.496094 C 219.640625 202.324219 219.023438 202.15625 218.402344 201.992188 " fill-opacity="1" fill-rule="nonzero"/><path fill="#72251a" d="M 220.257812 202.496094 C 220.207031 202.644531 220.15625 202.792969 220.105469 202.945312 C 223.703125 204.933594 232.835938 209.878906 245.890625 216.171875 C 246.152344 213.847656 246.476562 211.539062 246.859375 209.257812 C 238.199219 207.203125 229.339844 204.957031 220.257812 202.496094 " fill-opacity="1" fill-rule="nonzero"/><path fill="#ed7c5a" d="M 246.859375 209.257812 C 246.476562 211.539062 246.152344 213.847656 245.890625 216.171875 C 255.703125 220.898438 267.730469 226.382812 281.296875 231.953125 C 283.496094 227.671875 286.800781 222.582031 292.90625 218.726562 C 279.140625 216.34375 264.761719 213.4375 249.742188 209.933594 L 246.503906 211.820312 C 246.628906 210.964844 246.761719 210.113281 246.90625 209.265625 C 246.890625 209.261719 246.875 209.257812 246.859375 209.257812 M 327.761719 223.824219 C 328.082031 224.332031 328.402344 224.839844 328.726562 225.34375 C 333.441406 232.867188 316.710938 232.417969 305.484375 232.636719 C 301.660156 232.691406 296.5 234.386719 291.613281 236.078125 C 318.757812 246.648438 350.847656 256.894531 383.179688 262.132812 C 384.328125 260.84375 385.566406 259.617188 386.898438 258.46875 C 387.171875 258.316406 387.382812 258.242188 387.539062 258.242188 C 388.265625 258.242188 387.722656 259.871094 386.542969 262.65625 C 396.515625 264.167969 406.480469 265.171875 416.339844 265.558594 C 421.777344 255.074219 431.0625 246.148438 442.03125 246.019531 C 436.558594 241.191406 430.878906 236.667969 425.09375 232.421875 C 417.566406 232.097656 410.8125 231.109375 411.171875 227.421875 C 405.101562 227.671875 398.796875 227.808594 392.273438 227.808594 C 372.8125 227.808594 351.347656 226.625 327.761719 223.824219 " fill-opacity="1" fill-rule="nonzero"/><path fill="#651d14" d="M 292.90625 218.726562 C 286.800781 222.582031 283.496094 227.671875 281.296875 231.953125 C 284.644531 233.324219 288.089844 234.703125 291.613281 236.078125 C 296.5 234.386719 301.660156 232.691406 305.484375 232.636719 C 316.710938 232.417969 333.441406 232.867188 328.726562 225.34375 C 328.402344 224.839844 328.082031 224.332031 327.761719 223.824219 C 316.621094 222.5 304.992188 220.816406 292.90625 218.726562 " fill-opacity="1" fill-rule="nonzero"/><path fill="#651d14" d="M 417.605469 227.113281 C 415.484375 227.230469 413.351562 227.332031 411.171875 227.421875 C 410.8125 231.109375 417.566406 232.097656 425.09375 232.421875 C 422.613281 230.597656 420.113281 228.832031 417.605469 227.113281 " fill-opacity="1" fill-rule="nonzero"/><path fill="#d15e46" d="M 387.539062 258.242188 C 387.382812 258.242188 387.171875 258.316406 386.898438 258.46875 C 385.566406 259.617188 384.328125 260.84375 383.179688 262.132812 C 384.296875 262.316406 385.425781 262.488281 386.542969 262.65625 C 387.722656 259.871094 388.265625 258.242188 387.539062 258.242188 " fill-opacity="1" fill-rule="nonzero"/><path fill="#f0cabe" d="M 443.417969 252.863281 C 448.332031 255.246094 451.273438 259.222656 452.527344 263.765625 C 454.648438 263.441406 456.757812 263.078125 458.847656 262.675781 C 457.292969 260.9375 455.707031 259.222656 454.09375 257.550781 C 453.679688 257.257812 453.265625 256.980469 452.84375 256.71875 C 449.660156 254.707031 446.289062 253.527344 443.417969 252.863281 " fill-opacity="1" fill-rule="nonzero"/><path fill="#131110" d="M 437.707031 252.101562 C 430.535156 252.101562 424.9375 257.5 420.394531 265.679688 C 421.945312 265.714844 423.492188 265.734375 425.03125 265.734375 C 430.847656 265.734375 436.59375 265.496094 442.265625 264.992188 C 441.925781 263.292969 442.644531 261.632812 445.019531 261.511719 C 445.042969 261.507812 445.0625 261.507812 445.085938 261.507812 C 445.820312 261.507812 447.796875 262.582031 448.707031 264.296875 C 449.992188 264.132812 451.257812 263.957031 452.527344 263.765625 C 451.273438 259.222656 448.332031 255.246094 443.417969 252.863281 C 441.238281 252.355469 439.347656 252.148438 438.035156 252.105469 C 437.925781 252.105469 437.820312 252.101562 437.707031 252.101562 " fill-opacity="1" fill-rule="nonzero"/><path fill="#131110" d="M 442.03125 246.019531 C 431.0625 246.148438 421.777344 255.074219 416.339844 265.558594 C 417.695312 265.613281 419.046875 265.652344 420.394531 265.679688 C 424.9375 257.5 430.535156 252.101562 437.707031 252.101562 C 437.820312 252.101562 437.925781 252.105469 438.035156 252.105469 C 439.347656 252.148438 441.238281 252.355469 443.417969 252.863281 C 446.289062 253.527344 449.660156 254.707031 452.84375 256.71875 C 453.265625 256.980469 453.679688 257.257812 454.09375 257.550781 C 450.222656 253.527344 446.183594 249.6875 442.03125 246.019531 " fill-opacity="1" fill-rule="nonzero"/><path fill="#f0cabe" d="M 445.085938 261.507812 C 445.0625 261.507812 445.042969 261.507812 445.019531 261.511719 C 442.644531 261.632812 441.925781 263.292969 442.265625 264.992188 C 444.421875 264.796875 446.578125 264.566406 448.707031 264.296875 C 447.796875 262.582031 445.820312 261.507812 445.085938 261.507812 " fill-opacity="1" fill-rule="nonzero"/><path fill="#ed7c5a" d="M 246.90625 209.265625 C 246.761719 210.113281 246.628906 210.964844 246.503906 211.820312 L 249.742188 209.933594 C 248.796875 209.714844 247.855469 209.492188 246.90625 209.265625 " fill-opacity="1" fill-rule="nonzero"/><path fill="#72251a" d="M 542.164062 194.203125 C 533.777344 199.746094 494.582031 222.800781 417.605469 227.113281 C 420.113281 228.832031 422.613281 230.597656 425.09375 232.421875 C 430.878906 236.667969 436.558594 241.191406 442.03125 246.019531 C 446.183594 249.6875 450.222656 253.527344 454.09375 257.550781 C 455.707031 259.222656 457.292969 260.9375 458.847656 262.675781 C 494.382812 255.765625 524.910156 236.347656 542.453125 196.410156 C 542.355469 195.671875 542.257812 194.933594 542.164062 194.203125 " fill-opacity="1" fill-rule="nonzero"/><path fill="#041519" d="M 546.1875 185.820312 L 546.1875 170.449219 C 493.898438 137.402344 366.230469 80.839844 197.238281 171.65625 L 197.238281 182.804688 C 357.199219 248.503906 516.855469 196.480469 546.1875 185.820312 " fill-opacity="1" fill-rule="nonzero"/><path fill="#103035" d="M 546.183594 195.230469 L 546.183594 185.824219 C 516.855469 196.480469 357.199219 248.507812 197.238281 182.804688 L 197.238281 193.457031 C 221.226562 205.726562 372.109375 275.78125 546.183594 195.230469 " fill-opacity="1" fill-rule="nonzero"/><path fill="#112329" d="M 448.859375 492.273438 L 416.855469 479.136719 L 375.042969 496.980469 L 332.945312 478.433594 L 298.335938 493.59375 C 316.371094 530.898438 369.601562 612.6875 448.859375 492.273438 " fill-opacity="1" fill-rule="nonzero"/><path fill="#070b0c" d="M 353.867188 520.84375 L 374.847656 494.488281 L 392.328125 520.84375 L 374.847656 536.097656 L 353.867188 520.84375 " fill-opacity="1" fill-rule="nonzero"/><path fill="#070b0c" d="M 400.777344 615.300781 L 390.125 748.359375 C 385.96875 748.425781 381.636719 748.300781 377.183594 748.070312 C 371.359375 748.359375 365.78125 748.480469 360.417969 748.300781 L 349.304688 615.300781 L 367.433594 529.558594 L 372.917969 524.734375 L 372.917969 520.84375 L 375.304688 522.699219 L 377.445312 520.84375 L 377.445312 524.382812 L 383.058594 529.558594 L 400.777344 615.300781 " fill-opacity="1" fill-rule="nonzero"/><path fill="#1d3238" d="M 319.683594 484.242188 L 352.769531 531.933594 L 374.96875 494.488281 L 332.945312 478.433594 L 319.683594 484.242188 " fill-opacity="1" fill-rule="nonzero"/><path fill="#1d3238" d="M 430.457031 484.210938 L 397.15625 531.933594 L 374.96875 494.488281 L 416.855469 478.253906 L 430.457031 484.210938 " fill-opacity="1" fill-rule="nonzero"/><path fill="#e0e0e0" d="M 321.347656 593.785156 L 271.480469 593.785156 L 271.480469 585.503906 L 321.347656 585.503906 L 321.347656 593.785156 " fill-opacity="1" fill-rule="nonzero"/><path fill="#ddb91f" d="M 594.902344 666.378906 L 610.363281 674.238281 C 609.917969 672.1875 609.464844 670.167969 609.011719 668.199219 C 601.015625 633.820312 591.710938 611.53125 581.191406 594.605469 L 557.636719 597.644531 L 594.902344 666.378906 " fill-opacity="1" fill-rule="nonzero"/><path fill="#e0e0e0" d="M 474.765625 589.34375 L 421.066406 589.34375 L 421.066406 604.6875 L 427.824219 604.6875 L 421.667969 632.375 L 447.917969 642.019531 L 474.164062 632.375 L 468.007812 604.6875 L 474.765625 604.6875 L 474.765625 589.34375 " fill-opacity="1" fill-rule="nonzero"/><path fill="#e0e0e0" d="M 445.996094 654.128906 L 426.820312 654.128906 L 426.820312 669.476562 L 469.011719 669.476562 L 469.011719 654.128906 L 445.996094 654.128906 " fill-opacity="1" fill-rule="nonzero"/><path fill="#070b0c" d="M 247.703125 635.925781 L 245.234375 749.191406 L 258.355469 749.191406 C 255.527344 717.84375 247.703125 631.496094 247.703125 635.925781 " fill-opacity="1" fill-rule="nonzero"/><path fill="#070b0c" d="M 509.226562 635.925781 C 509.226562 631.496094 501.402344 717.84375 498.574219 749.191406 L 511.699219 749.191406 L 509.226562 635.925781 " fill-opacity="1" fill-rule="nonzero"/></svg>