<svg xmlns="http://www.w3.org/2000/svg" xmlns:xlink="http://www.w3.org/1999/xlink" width="1000" zoomAndPan="magnify" viewBox="0 0 750 749.999995" height="1000" preserveAspectRatio="xMidYMid meet" version="1.0"><defs><clipPath id="052e29131a"><path d="M 187.429688 191.648438 L 562 191.648438 L 562 558.398438 L 187.429688 558.398438 Z M 187.429688 191.648438 " clip-rule="nonzero"/></clipPath></defs><g clip-path="url(#052e29131a)"><path fill="#ffffff" d="M 560.675781 368.394531 L 533.429688 328.402344 C 532.53125 327.054688 531.109375 326.15625 529.539062 325.933594 C 527.964844 325.632812 526.320312 326.007812 525.046875 326.980469 C 516.0625 333.496094 504.460938 337.089844 492.335938 337.089844 C 483.054688 337.089844 474.144531 334.992188 466.4375 331.097656 L 466.4375 197.566406 C 466.4375 194.269531 463.742188 191.648438 460.523438 191.648438 L 285.367188 191.648438 C 285.292969 191.648438 285.21875 191.648438 285.144531 191.648438 C 285.066406 191.648438 284.992188 191.648438 284.917969 191.648438 C 284.695312 191.648438 284.394531 191.722656 284.167969 191.722656 C 283.945312 191.800781 283.644531 191.875 283.421875 191.949219 C 283.347656 191.949219 283.273438 192.023438 283.195312 192.023438 C 282.972656 192.097656 282.746094 192.171875 282.523438 192.324219 C 282.523438 192.324219 282.523438 192.324219 282.449219 192.324219 C 282.222656 192.472656 282 192.546875 281.773438 192.699219 C 281.699219 192.773438 281.699219 192.773438 281.625 192.847656 C 281.398438 192.996094 281.25 193.148438 281.027344 193.371094 L 189.183594 285.414062 C 188.957031 285.640625 188.808594 285.789062 188.65625 286.015625 C 188.582031 286.089844 188.582031 286.089844 188.507812 286.164062 C 188.359375 286.386719 188.207031 286.613281 188.132812 286.835938 C 188.132812 286.835938 188.132812 286.835938 188.132812 286.914062 C 187.984375 287.136719 187.910156 287.363281 187.835938 287.585938 C 187.835938 287.660156 187.757812 287.738281 187.757812 287.738281 C 187.683594 287.960938 187.609375 288.1875 187.535156 288.484375 C 187.460938 288.710938 187.460938 289.007812 187.460938 289.234375 C 187.460938 289.308594 187.460938 289.382812 187.460938 289.460938 C 187.460938 289.535156 187.460938 289.609375 187.460938 289.683594 L 187.460938 552.484375 C 187.460938 555.777344 190.15625 558.398438 193.375 558.398438 L 460.449219 558.398438 C 462.84375 558.398438 465.015625 556.902344 465.988281 554.65625 C 466.886719 552.40625 469.355469 548.738281 476.167969 543.71875 C 483.203125 538.550781 491.511719 534.65625 500.867188 532.113281 C 539.117188 521.777344 562.398438 483.429688 553.789062 444.710938 C 546.902344 413.632812 549.148438 390.339844 560.527344 375.359375 C 562.023438 373.265625 562.097656 370.492188 560.675781 368.394531 Z M 279.378906 211.945312 L 279.378906 283.617188 L 207.746094 283.617188 Z M 199.363281 295.527344 L 285.367188 295.527344 C 288.660156 295.527344 291.28125 292.828125 291.28125 289.609375 L 291.28125 203.558594 L 454.535156 203.558594 L 454.535156 331.097656 C 446.75 335.070312 437.917969 337.089844 428.636719 337.089844 C 416.507812 337.089844 404.90625 333.496094 395.925781 326.980469 C 394.878906 326.230469 393.679688 325.855469 392.40625 325.855469 L 237.984375 325.855469 C 234.691406 325.855469 232.074219 328.554688 232.074219 331.773438 C 232.074219 334.992188 234.765625 337.691406 237.984375 337.691406 L 381.179688 337.691406 L 360.21875 368.320312 C 360.070312 368.546875 359.921875 368.769531 359.847656 368.996094 L 237.984375 368.996094 C 234.691406 368.996094 232.074219 371.691406 232.074219 374.910156 C 232.074219 378.207031 234.765625 380.828125 237.984375 380.828125 L 364.039062 380.828125 C 368.605469 389.214844 370.925781 399.703125 371 412.132812 L 237.984375 412.132812 C 234.691406 412.132812 232.074219 414.828125 232.074219 418.050781 C 232.074219 421.269531 234.765625 423.964844 237.984375 423.964844 L 370.476562 423.964844 C 369.875 430.40625 368.753906 437.222656 367.179688 444.488281 C 366.359375 448.082031 365.835938 451.675781 365.609375 455.273438 L 237.984375 455.273438 C 234.691406 455.273438 232.074219 457.96875 232.074219 461.1875 C 232.074219 464.484375 234.765625 467.105469 237.984375 467.105469 L 365.757812 467.105469 C 366.730469 478.339844 370.324219 488.972656 375.9375 498.410156 L 237.984375 498.410156 C 234.691406 498.410156 232.074219 501.105469 232.074219 504.328125 C 232.074219 507.546875 234.765625 510.242188 237.984375 510.242188 L 384.773438 510.242188 C 393.980469 520.277344 406.03125 527.992188 420.175781 531.738281 C 429.535156 534.285156 437.84375 538.179688 444.878906 543.34375 C 446.152344 544.320312 447.347656 545.21875 448.320312 546.117188 L 199.363281 546.117188 Z M 542.1875 447.257812 C 549.375 479.761719 529.835938 511.964844 497.800781 520.652344 C 487.019531 523.574219 477.363281 528.140625 469.132812 534.207031 C 465.6875 536.753906 462.84375 539.300781 460.523438 541.847656 C 458.203125 539.300781 455.359375 536.753906 451.914062 534.207031 C 443.679688 528.140625 434.023438 523.574219 423.246094 520.652344 C 391.132812 511.964844 371.671875 479.761719 378.859375 447.257812 C 386.042969 414.90625 383.875 389.515625 372.496094 371.765625 L 394.203125 340.011719 C 404.308594 345.929688 416.359375 349.074219 428.785156 349.074219 C 440.164062 349.074219 451.089844 346.453125 460.671875 341.507812 C 470.253906 346.453125 481.183594 349.074219 492.558594 349.074219 C 504.984375 349.074219 517.035156 345.851562 527.140625 340.011719 L 548.847656 371.765625 C 537.171875 389.515625 535 414.828125 542.1875 447.257812 Z M 542.1875 447.257812 " fill-opacity="1" fill-rule="nonzero"/></g><path fill="#ffffff" d="M 322.792969 294.550781 L 415.910156 294.550781 C 419.203125 294.550781 421.824219 291.855469 421.824219 288.636719 C 421.824219 285.339844 419.128906 282.71875 415.910156 282.71875 L 322.792969 282.71875 C 319.5 282.71875 316.878906 285.414062 316.878906 288.636719 C 316.804688 291.855469 319.5 294.550781 322.792969 294.550781 Z M 322.792969 294.550781 " fill-opacity="1" fill-rule="nonzero"/><path fill="#ffffff" d="M 322.792969 251.339844 L 415.910156 251.339844 C 419.203125 251.339844 421.824219 248.640625 421.824219 245.421875 C 421.824219 242.125 419.128906 239.503906 415.910156 239.503906 L 322.792969 239.503906 C 319.5 239.503906 316.878906 242.203125 316.878906 245.421875 C 316.804688 248.640625 319.5 251.339844 322.792969 251.339844 Z M 322.792969 251.339844 " fill-opacity="1" fill-rule="nonzero"/><path fill="#ffffff" d="M 510.597656 414.828125 L 478.5625 411.984375 L 465.914062 382.328125 C 465.015625 380.152344 462.84375 378.730469 460.449219 378.730469 C 458.054688 378.730469 455.957031 380.152344 454.984375 382.328125 L 442.332031 411.910156 L 410.296875 414.753906 C 407.902344 414.980469 405.878906 416.550781 405.207031 418.875 C 404.457031 421.121094 405.132812 423.59375 406.929688 425.164062 L 431.179688 446.359375 L 423.996094 477.738281 C 423.472656 480.0625 424.367188 482.457031 426.316406 483.878906 C 427.363281 484.628906 428.5625 485.003906 429.832031 485.003906 C 430.882812 485.003906 431.929688 484.703125 432.902344 484.179688 L 460.523438 467.703125 L 488.144531 484.179688 C 490.164062 485.378906 492.785156 485.304688 494.65625 483.878906 C 496.601562 482.457031 497.5 480.0625 496.976562 477.738281 L 489.789062 446.359375 L 514.042969 425.164062 C 515.839844 423.59375 516.511719 421.121094 515.765625 418.875 C 515.015625 416.628906 512.996094 414.980469 510.597656 414.828125 Z M 479.3125 439.769531 C 477.664062 441.191406 476.914062 443.4375 477.441406 445.535156 L 482.304688 466.804688 L 463.59375 455.570312 C 462.617188 455.046875 461.570312 454.746094 460.523438 454.746094 C 459.476562 454.746094 458.425781 455.046875 457.453125 455.570312 L 438.742188 466.804688 L 443.605469 445.535156 C 444.128906 443.4375 443.382812 441.191406 441.734375 439.769531 L 425.265625 425.390625 L 446.972656 423.441406 C 449.144531 423.21875 451.015625 421.871094 451.914062 419.847656 L 460.523438 399.777344 L 469.132812 419.847656 C 469.953125 421.871094 471.902344 423.21875 474.070312 423.441406 L 495.777344 425.390625 Z M 479.3125 439.769531 " fill-opacity="1" fill-rule="nonzero"/></svg>