<svg xmlns="http://www.w3.org/2000/svg" xmlns:xlink="http://www.w3.org/1999/xlink" width="1000" zoomAndPan="magnify" viewBox="0 0 750 749.999995" height="1000" preserveAspectRatio="xMidYMid meet" version="1.0"><defs><clipPath id="9eca27c2b7"><path d="M 405 406 L 511 406 L 511 511.519531 L 405 511.519531 Z M 405 406 " clip-rule="nonzero"/></clipPath></defs><path fill="#231f20" d="M 351.269531 456.519531 C 349.136719 456.519531 347.007812 456.457031 344.878906 456.324219 C 342.75 456.195312 340.628906 456 338.511719 455.742188 C 336.398438 455.480469 334.292969 455.15625 332.195312 454.765625 C 330.097656 454.378906 328.015625 453.925781 325.949219 453.40625 C 323.882812 452.890625 321.832031 452.308594 319.796875 451.667969 C 317.765625 451.023438 315.753906 450.320312 313.765625 449.554688 C 311.777344 448.785156 309.8125 447.960938 307.875 447.074219 C 305.9375 446.1875 304.027344 445.238281 302.144531 444.234375 C 300.265625 443.230469 298.417969 442.171875 296.601562 441.050781 C 294.789062 439.933594 293.007812 438.761719 291.265625 437.535156 C 289.523438 436.308594 287.816406 435.027344 286.152344 433.699219 C 284.488281 432.367188 282.867188 430.984375 281.285156 429.554688 C 279.707031 428.121094 278.171875 426.644531 276.683594 425.117188 C 275.191406 423.59375 273.753906 422.023438 272.359375 420.410156 C 270.964844 418.796875 269.625 417.140625 268.332031 415.445312 C 267.042969 413.746094 265.804688 412.011719 264.621094 410.242188 C 263.433594 408.46875 262.304688 406.660156 261.230469 404.820312 C 260.160156 402.976562 259.140625 401.105469 258.183594 399.203125 C 257.226562 397.296875 256.324219 395.367188 255.484375 393.40625 C 254.644531 391.449219 253.867188 389.464844 253.148438 387.457031 C 252.429688 385.449219 251.773438 383.421875 251.179688 381.375 C 250.585938 379.328125 250.054688 377.265625 249.585938 375.183594 C 249.121094 373.105469 248.71875 371.011719 248.378906 368.90625 C 248.039062 366.800781 247.765625 364.691406 247.558594 362.566406 C 247.347656 360.445312 247.203125 358.320312 247.125 356.191406 C 247.046875 354.058594 247.035156 351.929688 247.085938 349.796875 C 247.136719 347.667969 247.257812 345.539062 247.4375 343.414062 C 247.621094 341.292969 247.871094 339.175781 248.183594 337.066406 C 248.496094 334.957031 248.875 332.859375 249.316406 330.773438 C 249.757812 328.691406 250.261719 326.621094 250.832031 324.566406 C 251.398438 322.511719 252.03125 320.476562 252.722656 318.460938 C 253.417969 316.445312 254.171875 314.453125 254.988281 312.480469 C 255.804688 310.511719 256.679688 308.570312 257.617188 306.65625 C 258.550781 304.738281 259.542969 302.855469 260.59375 301 C 261.644531 299.144531 262.753906 297.324219 263.917969 295.535156 C 265.078125 293.75 266.296875 292 267.566406 290.289062 C 268.835938 288.578125 270.15625 286.90625 271.53125 285.273438 C 272.902344 283.644531 274.324219 282.054688 275.796875 280.511719 C 277.265625 278.96875 278.78125 277.472656 280.34375 276.023438 C 281.90625 274.570312 283.511719 273.167969 285.160156 271.816406 C 286.808594 270.464844 288.496094 269.164062 290.222656 267.917969 C 291.953125 266.667969 293.71875 265.476562 295.519531 264.335938 C 297.320312 263.195312 299.15625 262.113281 301.023438 261.085938 C 302.890625 260.058594 304.789062 259.089844 306.714844 258.175781 C 308.644531 257.265625 310.597656 256.414062 312.578125 255.625 C 314.554688 254.832031 316.558594 254.105469 318.582031 253.4375 C 320.605469 252.769531 322.648438 252.164062 324.710938 251.621094 C 326.773438 251.078125 328.847656 250.601562 330.941406 250.183594 C 333.03125 249.769531 335.132812 249.417969 337.246094 249.132812 C 339.359375 248.847656 341.476562 248.625 343.605469 248.472656 C 345.730469 248.316406 347.859375 248.222656 349.992188 248.199219 C 352.121094 248.175781 354.253906 248.214844 356.382812 248.320312 C 358.511719 248.425781 360.632812 248.597656 362.753906 248.832031 C 364.871094 249.070312 366.980469 249.371094 369.082031 249.734375 C 371.183594 250.101562 373.269531 250.53125 375.34375 251.023438 C 377.417969 251.519531 379.472656 252.074219 381.511719 252.695312 C 383.550781 253.316406 385.570312 253.996094 387.570312 254.742188 C 389.566406 255.484375 391.539062 256.289062 393.488281 257.152344 C 395.4375 258.019531 397.355469 258.941406 399.25 259.925781 C 401.140625 260.910156 403 261.949219 404.828125 263.046875 C 406.65625 264.144531 408.449219 265.296875 410.203125 266.503906 C 411.960938 267.710938 413.679688 268.96875 415.359375 270.28125 C 417.039062 271.59375 418.675781 272.957031 420.273438 274.371094 C 421.871094 275.785156 423.421875 277.246094 424.925781 278.753906 C 426.738281 280.5625 428.476562 282.433594 430.148438 284.371094 C 431.820312 286.304688 433.417969 288.300781 434.945312 290.355469 C 436.46875 292.40625 437.914062 294.515625 439.285156 296.675781 C 440.65625 298.835938 441.941406 301.042969 443.148438 303.300781 C 444.355469 305.554688 445.476562 307.851562 446.515625 310.1875 C 447.554688 312.527344 448.503906 314.898438 449.367188 317.308594 C 450.226562 319.714844 451 322.152344 451.683594 324.617188 C 452.367188 327.082031 452.957031 329.570312 453.457031 332.078125 C 453.957031 334.585938 454.363281 337.109375 454.675781 339.648438 C 454.992188 342.1875 455.210938 344.734375 455.335938 347.289062 C 455.460938 349.84375 455.496094 352.398438 455.433594 354.957031 C 455.371094 357.515625 455.210938 360.066406 454.960938 362.609375 C 454.710938 365.15625 454.367188 367.691406 453.929688 370.210938 C 453.492188 372.730469 452.964844 375.230469 452.34375 377.710938 C 451.71875 380.191406 451.007812 382.648438 450.207031 385.078125 C 449.402344 387.503906 448.511719 389.902344 447.535156 392.265625 C 446.554688 394.628906 445.488281 396.953125 444.339844 399.234375 C 443.1875 401.519531 441.957031 403.757812 440.640625 405.953125 C 439.324219 408.148438 437.929688 410.289062 436.457031 412.378906 C 434.984375 414.472656 433.433594 416.503906 431.8125 418.480469 C 430.1875 420.457031 428.496094 422.371094 426.730469 424.226562 C 424.964844 426.078125 423.136719 427.859375 421.238281 429.578125 C 419.34375 431.296875 417.386719 432.941406 415.371094 434.511719 C 413.351562 436.085938 411.28125 437.582031 409.152344 439.003906 C 407.023438 440.421875 404.847656 441.761719 402.621094 443.023438 C 400.394531 444.28125 398.125 445.457031 395.8125 446.550781 C 393.5 447.640625 391.152344 448.648438 388.761719 449.566406 C 386.375 450.484375 383.957031 451.316406 381.511719 452.054688 C 379.0625 452.796875 376.589844 453.445312 374.09375 454.003906 C 371.597656 454.566406 369.085938 455.03125 366.554688 455.402344 C 364.023438 455.777344 361.484375 456.058594 358.929688 456.242188 C 356.378906 456.429688 353.824219 456.519531 351.269531 456.519531 Z M 351.269531 271.140625 C 349.714844 271.140625 348.164062 271.179688 346.613281 271.265625 C 345.0625 271.351562 343.515625 271.480469 341.972656 271.65625 C 340.429688 271.828125 338.894531 272.046875 337.363281 272.308594 C 335.832031 272.570312 334.3125 272.878906 332.796875 273.226562 C 331.285156 273.574219 329.785156 273.96875 328.292969 274.402344 C 326.804688 274.839844 325.328125 275.316406 323.863281 275.835938 C 322.398438 276.355469 320.953125 276.917969 319.523438 277.523438 C 318.089844 278.125 316.679688 278.769531 315.285156 279.453125 C 313.890625 280.136719 312.519531 280.859375 311.164062 281.621094 C 309.8125 282.386719 308.484375 283.1875 307.175781 284.023438 C 305.871094 284.863281 304.589844 285.738281 303.332031 286.652344 C 302.074219 287.5625 300.847656 288.511719 299.644531 289.496094 C 298.441406 290.476562 297.269531 291.492188 296.125 292.542969 C 294.980469 293.59375 293.871094 294.675781 292.789062 295.789062 C 291.707031 296.902344 290.65625 298.046875 289.640625 299.222656 C 288.625 300.394531 287.640625 301.597656 286.695312 302.828125 C 285.746094 304.058594 284.835938 305.3125 283.960938 306.597656 C 283.085938 307.878906 282.246094 309.183594 281.445312 310.515625 C 280.648438 311.847656 279.886719 313.199219 279.160156 314.574219 C 278.4375 315.945312 277.757812 317.339844 277.113281 318.753906 C 276.46875 320.167969 275.867188 321.597656 275.308594 323.046875 C 274.746094 324.492188 274.226562 325.957031 273.75 327.433594 C 273.273438 328.910156 272.835938 330.402344 272.445312 331.902344 C 272.054688 333.40625 271.707031 334.917969 271.398438 336.441406 C 271.09375 337.964844 270.832031 339.492188 270.617188 341.03125 C 270.398438 342.570312 270.226562 344.109375 270.097656 345.660156 C 269.96875 347.207031 269.882812 348.753906 269.84375 350.308594 C 269.800781 351.859375 269.808594 353.410156 269.855469 354.964844 C 269.902344 356.515625 269.996094 358.066406 270.136719 359.613281 C 270.273438 361.160156 270.453125 362.699219 270.679688 364.234375 C 270.90625 365.773438 271.175781 367.300781 271.488281 368.820312 C 271.800781 370.34375 272.160156 371.851562 272.558594 373.351562 C 272.960938 374.851562 273.402344 376.339844 273.886719 377.816406 C 274.371094 379.289062 274.898438 380.75 275.46875 382.195312 C 276.039062 383.640625 276.648438 385.066406 277.300781 386.476562 C 277.949219 387.886719 278.640625 389.277344 279.371094 390.648438 C 280.101562 392.015625 280.871094 393.363281 281.679688 394.691406 C 282.484375 396.015625 283.332031 397.320312 284.214844 398.597656 C 285.097656 399.875 286.015625 401.125 286.96875 402.351562 C 287.921875 403.574219 288.910156 404.773438 289.933594 405.941406 C 290.957031 407.109375 292.011719 408.246094 293.097656 409.355469 C 294.1875 410.464844 295.304688 411.539062 296.457031 412.582031 C 297.605469 413.625 298.785156 414.636719 299.992188 415.613281 C 301.199219 416.589844 302.433594 417.53125 303.695312 418.433594 C 304.957031 419.339844 306.242188 420.210938 307.554688 421.039062 C 308.863281 421.871094 310.199219 422.664062 311.554688 423.421875 C 312.910156 424.175781 314.289062 424.890625 315.6875 425.570312 C 317.085938 426.246094 318.5 426.878906 319.933594 427.476562 C 321.367188 428.070312 322.820312 428.625 324.285156 429.136719 C 325.75 429.648438 327.230469 430.117188 328.722656 430.546875 C 330.214844 430.972656 331.71875 431.355469 333.234375 431.699219 C 334.75 432.039062 336.273438 432.335938 337.804688 432.589844 C 339.335938 432.84375 340.875 433.054688 342.417969 433.21875 C 343.960938 433.386719 345.507812 433.507812 347.058594 433.582031 C 348.609375 433.660156 350.160156 433.691406 351.714844 433.679688 C 353.265625 433.667969 354.820312 433.613281 356.367188 433.511719 C 357.917969 433.410156 359.460938 433.265625 361.003906 433.074219 C 362.546875 432.886719 364.078125 432.652344 365.605469 432.375 C 367.136719 432.097656 368.652344 431.777344 370.164062 431.414062 C 371.671875 431.046875 373.167969 430.640625 374.65625 430.191406 C 376.140625 429.738281 377.613281 429.246094 379.070312 428.710938 C 380.527344 428.179688 381.96875 427.601562 383.394531 426.984375 C 384.820312 426.367188 386.226562 425.710938 387.613281 425.011719 C 389 424.3125 390.367188 423.578125 391.710938 422.800781 C 393.054688 422.023438 394.378906 421.210938 395.675781 420.359375 C 396.972656 419.507812 398.246094 418.617188 399.492188 417.695312 C 400.742188 416.769531 401.960938 415.808594 403.152344 414.8125 C 404.34375 413.820312 405.507812 412.792969 406.640625 411.730469 C 407.773438 410.667969 408.875 409.574219 409.945312 408.449219 C 411.015625 407.328125 412.054688 406.171875 413.058594 404.988281 C 414.0625 403.804688 415.035156 402.59375 415.96875 401.351562 C 416.902344 400.113281 417.800781 398.847656 418.664062 397.554688 C 419.527344 396.265625 420.351562 394.949219 421.140625 393.613281 C 421.925781 392.273438 422.675781 390.914062 423.382812 389.53125 C 424.09375 388.152344 424.761719 386.75 425.390625 385.332031 C 426.019531 383.910156 426.609375 382.476562 427.15625 381.019531 C 427.699219 379.566406 428.207031 378.101562 428.667969 376.617188 C 429.128906 375.136719 429.550781 373.640625 429.925781 372.136719 C 430.304688 370.628906 430.636719 369.113281 430.925781 367.585938 C 431.21875 366.0625 431.460938 364.53125 431.664062 362.988281 C 431.867188 361.449219 432.023438 359.90625 432.136719 358.359375 C 432.253906 356.808594 432.320312 355.257812 432.347656 353.707031 C 432.371094 352.152344 432.351562 350.601562 432.285156 349.050781 C 432.222656 347.5 432.113281 345.949219 431.960938 344.40625 C 431.808594 342.859375 431.609375 341.320312 431.371094 339.785156 C 431.128906 338.253906 430.84375 336.726562 430.515625 335.210938 C 430.1875 333.691406 429.8125 332.183594 429.398438 330.6875 C 428.984375 329.191406 428.527344 327.710938 428.027344 326.238281 C 427.527344 324.769531 426.984375 323.316406 426.402344 321.875 C 425.816406 320.4375 425.195312 319.015625 424.527344 317.613281 C 423.863281 316.210938 423.160156 314.828125 422.414062 313.464844 C 421.671875 312.101562 420.890625 310.761719 420.066406 309.441406 C 419.246094 308.125 418.390625 306.832031 417.492188 305.5625 C 416.597656 304.292969 415.667969 303.050781 414.703125 301.835938 C 413.734375 300.621094 412.734375 299.433594 411.699219 298.277344 C 410.667969 297.117188 409.601562 295.992188 408.5 294.894531 C 406.625 293.019531 404.664062 291.238281 402.617188 289.558594 C 400.566406 287.875 398.441406 286.296875 396.238281 284.820312 C 394.03125 283.347656 391.761719 281.984375 389.425781 280.734375 C 387.085938 279.480469 384.691406 278.347656 382.246094 277.332031 C 379.796875 276.316406 377.300781 275.421875 374.765625 274.648438 C 372.230469 273.878906 369.660156 273.234375 367.0625 272.714844 C 364.460938 272.195312 361.839844 271.804688 359.203125 271.539062 C 356.566406 271.277344 353.917969 271.144531 351.269531 271.140625 Z M 351.269531 271.140625 " fill-opacity="1" fill-rule="nonzero"/><g clip-path="url(#9eca27c2b7)"><path fill="#231f20" d="M 498.929688 511.519531 C 497.414062 511.511719 495.957031 511.21875 494.558594 510.632812 C 493.160156 510.046875 491.925781 509.21875 490.859375 508.144531 L 408.730469 426.070312 C 408.199219 425.539062 407.722656 424.960938 407.304688 424.335938 C 406.886719 423.710938 406.535156 423.050781 406.246094 422.355469 C 405.960938 421.660156 405.742188 420.945312 405.59375 420.207031 C 405.449219 419.46875 405.375 418.726562 405.375 417.972656 C 405.375 417.222656 405.449219 416.476562 405.59375 415.738281 C 405.742188 415 405.960938 414.285156 406.246094 413.589844 C 406.535156 412.894531 406.886719 412.234375 407.304688 411.609375 C 407.722656 410.984375 408.199219 410.40625 408.730469 409.875 C 409.261719 409.34375 409.839844 408.867188 410.464844 408.449219 C 411.089844 408.03125 411.75 407.679688 412.445312 407.390625 C 413.140625 407.105469 413.855469 406.886719 414.59375 406.738281 C 415.332031 406.59375 416.078125 406.519531 416.828125 406.519531 C 417.582031 406.519531 418.324219 406.59375 419.0625 406.738281 C 419.800781 406.886719 420.515625 407.105469 421.210938 407.390625 C 421.90625 407.679688 422.566406 408.03125 423.191406 408.449219 C 423.816406 408.867188 424.394531 409.34375 424.925781 409.875 L 507 492.003906 C 507.792969 492.804688 508.457031 493.703125 508.988281 494.699219 C 509.515625 495.695312 509.890625 496.746094 510.109375 497.851562 C 510.328125 498.960938 510.382812 500.074219 510.273438 501.199219 C 510.160156 502.320312 509.890625 503.402344 509.457031 504.445312 C 509.027344 505.488281 508.453125 506.449219 507.738281 507.320312 C 507.023438 508.195312 506.199219 508.945312 505.261719 509.574219 C 504.324219 510.203125 503.316406 510.683594 502.238281 511.015625 C 501.160156 511.347656 500.058594 511.515625 498.929688 511.519531 Z M 498.929688 511.519531 " fill-opacity="1" fill-rule="nonzero"/></g></svg>