<svg xmlns="http://www.w3.org/2000/svg" xmlns:xlink="http://www.w3.org/1999/xlink" width="1000" zoomAndPan="magnify" viewBox="0 0 750 749.999995" height="1000" preserveAspectRatio="xMidYMid meet" version="1.0"><defs><clipPath id="761fe2fa79"><path d="M 375 250 L 562.539062 250 L 562.539062 562.539062 L 375 562.539062 Z M 375 250 " clip-rule="nonzero"/></clipPath><clipPath id="565cd918b8"><path d="M 187.539062 187.539062 L 438 187.539062 L 438 538 L 187.539062 538 Z M 187.539062 187.539062 " clip-rule="nonzero"/></clipPath></defs><path fill="#ffffff" d="M 468.789062 400.039062 C 437.773438 400.039062 412.539062 374.804688 412.539062 343.789062 C 412.539062 312.773438 437.773438 287.539062 468.789062 287.539062 C 499.804688 287.539062 525.039062 312.773438 525.039062 343.789062 C 525.039062 374.804688 499.804688 400.039062 468.789062 400.039062 Z M 468.789062 275.039062 C 430.882812 275.039062 400.039062 305.882812 400.039062 343.789062 C 400.039062 381.699219 430.882812 412.539062 468.789062 412.539062 C 506.699219 412.539062 537.539062 381.699219 537.539062 343.789062 C 537.539062 305.882812 506.699219 275.039062 468.789062 275.039062 " fill-opacity="1" fill-rule="nonzero"/><g clip-path="url(#761fe2fa79)"><path fill="#ffffff" d="M 468.789062 425.039062 C 423.988281 425.039062 387.539062 388.59375 387.539062 343.789062 C 387.539062 298.988281 423.988281 262.539062 468.789062 262.539062 C 513.59375 262.539062 550.039062 298.988281 550.039062 343.789062 C 550.039062 388.59375 513.59375 425.039062 468.789062 425.039062 Z M 481.289062 437.539062 C 484.734375 437.539062 487.539062 440.34375 487.539062 443.789062 C 487.539062 447.234375 484.734375 450.039062 481.289062 450.039062 L 456.289062 450.039062 C 452.84375 450.039062 450.039062 447.234375 450.039062 443.789062 C 450.039062 440.34375 452.84375 437.539062 456.289062 437.539062 Z M 468.789062 550.039062 C 465.34375 550.039062 462.539062 547.234375 462.539062 543.789062 L 462.539062 537.539062 L 475.039062 537.539062 L 475.039062 543.789062 C 475.039062 547.234375 472.234375 550.039062 468.789062 550.039062 Z M 475.039062 462.539062 L 475.039062 525.039062 L 462.539062 525.039062 L 462.539062 462.539062 Z M 562.539062 343.789062 C 562.539062 292.097656 520.484375 250.039062 468.789062 250.039062 C 417.097656 250.039062 375.039062 292.097656 375.039062 343.789062 C 375.039062 385.734375 402.726562 421.324219 440.78125 433.265625 C 438.734375 436.265625 437.539062 439.894531 437.539062 443.789062 C 437.539062 451.9375 442.765625 458.882812 450.039062 461.464844 L 450.039062 543.789062 C 450.039062 554.128906 458.449219 562.539062 468.789062 562.539062 C 479.128906 562.539062 487.539062 554.128906 487.539062 543.789062 L 487.539062 461.464844 C 494.816406 458.882812 500.039062 451.9375 500.039062 443.789062 C 500.039062 439.894531 498.84375 436.265625 496.800781 433.265625 C 534.855469 421.324219 562.539062 385.734375 562.539062 343.789062 " fill-opacity="1" fill-rule="nonzero"/></g><g clip-path="url(#565cd918b8)"><path fill="#ffffff" d="M 425.039062 212.539062 L 358.878906 212.539062 L 346.378906 200.039062 L 425.039062 200.039062 Z M 302.628906 200.039062 L 328.703125 200.039062 L 341.203125 212.539062 L 315.128906 212.539062 Z M 252.628906 200.039062 L 284.953125 200.039062 L 297.453125 212.539062 L 265.128906 212.539062 Z M 200.039062 200.039062 L 234.953125 200.039062 L 258.121094 223.207031 C 259.292969 224.378906 260.882812 225.039062 262.539062 225.039062 L 425.039062 225.039062 L 425.039062 243.789062 L 437.539062 243.789062 L 437.539062 193.789062 C 437.539062 190.339844 434.742188 187.539062 431.289062 187.539062 L 193.789062 187.539062 C 190.339844 187.539062 187.539062 190.339844 187.539062 193.789062 L 187.539062 531.289062 C 187.539062 534.742188 190.339844 537.539062 193.789062 537.539062 L 262.539062 537.539062 L 262.539062 525.039062 L 200.039062 525.039062 L 200.039062 200.039062 " fill-opacity="1" fill-rule="nonzero"/></g><path fill="#ffffff" d="M 291.078125 542.519531 L 235.023438 305.304688 L 411.414062 263.621094 L 408.539062 251.457031 L 226.066406 294.578125 C 222.707031 295.367188 220.628906 298.738281 221.421875 302.097656 L 280.351562 551.476562 C 280.726562 553.089844 281.734375 554.484375 283.148438 555.359375 C 284.140625 555.972656 285.277344 556.289062 286.433594 556.289062 C 286.910156 556.289062 287.394531 556.234375 287.871094 556.121094 L 438.976562 520.417969 L 436.101562 508.253906 L 291.078125 542.519531 " fill-opacity="1" fill-rule="nonzero"/><path fill="#ffffff" d="M 291.304688 407.601562 L 303.46875 404.726562 L 300.59375 392.5625 L 288.429688 395.4375 L 291.304688 407.601562 " fill-opacity="1" fill-rule="nonzero"/><path fill="#ffffff" d="M 312.757812 389.6875 L 315.636719 401.851562 L 370.226562 388.953125 L 367.351562 376.789062 L 312.757812 389.6875 " fill-opacity="1" fill-rule="nonzero"/><path fill="#ffffff" d="M 282.015625 422.640625 L 284.890625 434.804688 L 382.726562 411.683594 L 379.851562 399.523438 L 282.015625 422.640625 " fill-opacity="1" fill-rule="nonzero"/><path fill="#ffffff" d="M 287.765625 446.96875 L 290.640625 459.136719 L 401.476562 432.945312 L 398.601562 420.78125 L 287.765625 446.96875 " fill-opacity="1" fill-rule="nonzero"/><path fill="#ffffff" d="M 427.328125 439.679688 L 293.511719 471.300781 L 296.386719 483.464844 L 430.203125 451.847656 L 427.328125 439.679688 " fill-opacity="1" fill-rule="nonzero"/><path fill="#ffffff" d="M 302.140625 507.792969 L 411.621094 481.925781 L 408.746094 469.761719 L 299.265625 495.628906 L 302.140625 507.792969 " fill-opacity="1" fill-rule="nonzero"/><path fill="#ffffff" d="M 364.570312 293.957031 L 263.664062 317.800781 C 260.304688 318.59375 258.226562 321.964844 259.019531 325.320312 L 270.515625 373.980469 C 271.199219 376.855469 273.761719 378.796875 276.59375 378.796875 C 277.074219 378.796875 277.554688 378.738281 278.035156 378.625 L 363.976562 358.320312 L 361.101562 346.15625 L 281.242188 365.023438 L 272.621094 328.53125 L 367.445312 306.121094 L 364.570312 293.957031 " fill-opacity="1" fill-rule="nonzero"/></svg>